/* XPM */
static xpm_row_t const botao_main[] = {
"66 46 209 2",
"  	c None",
". 	c #737A82",
"+ 	c #8C8179",
"@ 	c #8F8278",
"# 	c #8F8178",
"$ 	c #90837A",
"% 	c #897C72",
"& 	c #8C7F76",
"* 	c #90837B",
"= 	c #998376",
"- 	c #A78872",
"; 	c #A58974",
"> 	c #A68975",
", 	c #A68974",
"' 	c #A78A75",
") 	c #A68A76",
"! 	c #A48974",
"~ 	c #A68871",
"{ 	c #978376",
"] 	c #A08673",
"^ 	c #998170",
"/ 	c #907C6E",
"( 	c #917D6E",
"_ 	c #917C6E",
": 	c #927D6E",
"< 	c #927C6E",
"[ 	c #917D6F",
"} 	c #9D8472",
"| 	c #9F8673",
"1 	c #847569",
"2 	c #69625D",
"3 	c #6A625D",
"4 	c #6A635D",
"5 	c #6A625C",
"6 	c #6D655F",
"7 	c #927E6F",
"8 	c #A28874",
"9 	c #7B6E64",
"0 	c #4D5051",
"a 	c #4F5051",
"b 	c #4F5152",
"c 	c #4D4F50",
"d 	c #565554",
"e 	c #8F7C6D",
"f 	c #A38874",
"g 	c #A18673",
"h 	c #7D6F65",
"i 	c #515253",
"j 	c #535353",
"k 	c #545454",
"l 	c #525353",
"m 	c #595856",
"n 	c #907C6D",
"o 	c #545353",
"p 	c #917C6D",
"q 	c #A18773",
"r 	c #777777",
"s 	c #9A9A9A",
"t 	c #565656",
"u 	c #EFEFEF",
"v 	c #FFFFFF",
"w 	c #B0B0B0",
"x 	c #555554",
"y 	c #555555",
"z 	c #AAAAAA",
"A 	c #555454",
"B 	c #F0F0F0",
"C 	c #C2C2C2",
"D 	c #E6E6E6",
"E 	c #828282",
"F 	c #C0C0C0",
"G 	c #F5F5F5",
"H 	c #C1C1C1",
"I 	c #5C5C5C",
"J 	c #EBEBEB",
"K 	c #F8F8F8",
"L 	c #8C8C8C",
"M 	c #DFDFDF",
"N 	c #CBCBCB",
"O 	c #D6D6D6",
"P 	c #BDBDBD",
"Q 	c #CFCFCF",
"R 	c #FDFDFD",
"S 	c #FAFAFA",
"T 	c #595959",
"U 	c #F6F6F6",
"V 	c #E9E9E9",
"W 	c #939393",
"X 	c #7A7A7A",
"Y 	c #D4D4D4",
"Z 	c #E7E7E7",
"` 	c #787878",
" .	c #D5D5D5",
"..	c #E8E8E8",
"+.	c #DCDCDC",
"@.	c #C8C8C8",
"#.	c #999999",
"$.	c #EEEEEE",
"%.	c #A3A3A3",
"&.	c #E1E1E1",
"*.	c #DBDBDB",
"=.	c #B3B3B3",
"-.	c #E3E3E3",
";.	c #B9B9B9",
">.	c #E4E4E4",
",.	c #949494",
"'.	c #CDCDCD",
").	c #D3D3D3",
"!.	c #878787",
"~.	c #ECECEC",
"{.	c #575757",
"].	c #D9D9D9",
"^.	c #A7A7A7",
"/.	c #858585",
"(.	c #DEDEDE",
"_.	c #B4B4B4",
":.	c #C9C9C9",
"<.	c #ADADAD",
"[.	c #B2B2B2",
"}.	c #C5C5C5",
"|.	c #E0E0E0",
"1.	c #9C9C9C",
"2.	c #616161",
"3.	c #F1F1F1",
"4.	c #EDEDED",
"5.	c #8B8B8B",
"6.	c #E5E5E5",
"7.	c #7F7F7F",
"8.	c #D1D1D1",
"9.	c #9F9F9F",
"0.	c #ACACAC",
"a.	c #F9F9F9",
"b.	c #FEFEFE",
"c.	c #666666",
"d.	c #B8B8B8",
"e.	c #CECECE",
"f.	c #F7F7F7",
"g.	c #FBFBFB",
"h.	c #696969",
"i.	c #7D7D7D",
"j.	c #898989",
"k.	c #A5A5A5",
"l.	c #F3F3F3",
"m.	c #767676",
"n.	c #636363",
"o.	c #808080",
"p.	c #EAEAEA",
"q.	c #A8A8A8",
"r.	c #5F5F5F",
"s.	c #909090",
"t.	c #B5B5B5",
"u.	c #D2D2D2",
"v.	c #838383",
"w.	c #D7D7D7",
"x.	c #8D8D8D",
"y.	c #868686",
"z.	c #919191",
"A.	c #BFBFBF",
"B.	c #A1A1A1",
"C.	c #D0D0D0",
"D.	c #959595",
"E.	c #676767",
"F.	c #989898",
"G.	c #C4C4C4",
"H.	c #C7C7C7",
"I.	c #C6C6C6",
"J.	c #727272",
"K.	c #A6A6A6",
"L.	c #969696",
"M.	c #8E8E8E",
"N.	c #F4F4F4",
"O.	c #BBBBBB",
"P.	c #5B5B5B",
"Q.	c #FCFCFC",
"R.	c #E2E2E2",
"S.	c #818181",
"T.	c #A28875",
"U.	c #7C6F65",
"V.	c #A38875",
"W.	c #525253",
"X.	c #555353",
"Y.	c #5A5856",
"Z.	c #A08672",
"`.	c #7A6D63",
" +	c #4B4E51",
".+	c #4E4F51",
"++	c #4E5051",
"@+	c #4C4F50",
"#+	c #827266",
"$+	c #5F5C59",
"%+	c #615C59",
"&+	c #625D59",
"*+	c #605C58",
"=+	c #65605B",
"-+	c #937D6D",
";+	c #A28873",
">+	c #9C8675",
",+	c #967E6D",
"'+	c #88776A",
")+	c #8A776A",
"!+	c #897769",
"~+	c #8A786A",
"{+	c #9D8270",
"]+	c #9F8674",
"^+	c #A38773",
"/+	c #A48774",
"(+	c #A38774",
"_+	c #A38673",
":+	c #9F8574",
". + @ # # # # # # # # $ % & * # @ # # # # # # # # # # # # # # # #                                                                   ",
"= - ; > > > > > > > > , ' ) , > > > > > > > > > > > > > > > > > > > > > > > > > > > > > > > > > > > , ' ' , > > > > > > > > > ! ~ { ",
"] ^ / ( _ _ _ _ _ _ _ _ : _ _ ( _ _ _ _ _ _ _ _ _ _ _ _ _ _ _ _ _ _ _ _ _ _ _ _ _ _ _ _ _ _ _ _ _ ( _ : < _ _ _ _ _ _ _ _ _ : [ } | ",
"] 1 2 3 3 3 3 3 3 3 3 3 3 3 4 4 3 3 3 3 3 3 3 3 3 3 3 3 3 3 3 3 3 3 3 3 3 3 3 3 3 3 3 3 3 3 3 3 3 3 3 3 3 3 3 3 3 3 3 3 3 3 5 6 7 8 ",
"] 9 0 a b b b b b b b b b b b b b b b b b b b b b b b b b b b b b b b b b b b b b b b b b b b b b b b b b b b b b b b b b b c d e f ",
"g h i j k k k k k k k k k k k k k k k k k k k k k k k k k k k k k k k k k k k k k k k k k k k k k k k k k k k k k k k k k k l m n f ",
"g h i o k k k k k k k k k k k k k k k k k k k k k k k k k k k k k k k k k k k k k k k k k k k k k k k k k k k k k k k k k k l m p f ",
"g h i o k k k k k k k k k k k k k k k k k k k k k k k k k k k k k k k k k k k k k k k k k k k k k k k k k k k k k k k k k k l m p f ",
"q h i o k k k k k k k k k k k k k k k k k k k k k k k k k k k k k k k k k k r s t k k k k k k k k k k k k k k k k k k k k k l m p f ",
"q h i o k k k k k k k k k k k k k k k k k k k k k k k k k k k k k k k k k k u v w k k k k k k k k k k k k k k k k k k k k k l m p 8 ",
"q h i o k k k k k k k k x x y k s u v v z k A k s v v B z k k k k k k k k k C D E k k k x k k k k k k k k k x k k k k k k k l m p 8 ",
"q h i o k k k k k k k k k k k k k F G v H k k I J K v L k k k k k k k k k k k k k k k k k k k k k k k k k k k k k k k k k k l m p 8 ",
"q h i o k k k k k k k k k k k k k M N v O k k P Q R S T k w J U S V W k X Y Z D k `  ...+.@.K G #.k k k k k k k j k k k k k l m p 8 ",
"q h i o k k k k k k k k k k k k t K L v ..k r $.%.v &.k k *.=.I #.v -.k k ;.v Y k k P v >.,.'.v ).k k k k k k k k k k k k k l m p 8 ",
"q h i o k k k k k k k k k k k k !.~.{.R K k ].^.F v C k k k k k /.v (.k k H v _.k k :.v <.k [.v }.k k k k k k k k k k k k k l m p 8 ",
"q h i o k k k k k k k k k k k k =.Q k $.v z |.k |.v 1.k 2.@.3.4.~.v H k k (.v 5.k k 6.v 7.k 8.v 9.k k k k k k k k k k k k k l m p 8 ",
"q h i o k k k k k k k k k k k k  .0.k +.v U 7.{.a.b.c.k Q v d.k e.v s k k f.g.T k T g.U k k $.v h.k k k k k k k k k k k k k l m p 8 ",
"q h i o k k k k k k k k k k k k 3.i.k :.v H k j.v J k k ..v k.5.l.v X k m.v $.k {.L v (.k n.v U k k k k k k k k k k k k k k l m p 8 ",
"q h i o k k k k k k k k k k o.-.v &.h.[.J I ^.$.v S F k z f.K C N R p.q.r.V R M s.t.v u.k t >.R &.L k k k k k k k k k k k k l m p 8 ",
"q h i o k k k k k k k k k k k k k k k k k k k k k k k k k k k k k k k k k k k k k k k k k k k k k k k k k k k k k k k k k k l m p 8 ",
"q h i o k k k k k k k k k k k k k k k k k k k k k k k k k k k k k k k k k k k k k k k k k k k k k k k k k k k k k k k k k k l m p 8 ",
"q h i o k k k k k k k k k k k k k k k k k k k k k k k k k k k k k k k k k k k k k k k k k k k k k k k k k k k k k k k k k k l m p 8 ",
"q h i o k k k k k k k k k k k k k k k k k k k k k k k k k k k k k k k k k k k k k k k k k k k k k k k k k k k k k k k k k k l m p 8 ",
"q h i o k k k k k k k k k k k k k k k k k k k k k k k k k k k k k k k k k k k k k k k k k k k k k k k k k k k k k k k k k k l m p 8 ",
"q h i o k k k k k k k k k k k k k k k k k k k k k k k k k k k k k k k k k k k k k k k k k k k k k k k k k k k k k k k k k k l m p 8 ",
"q h i o k k k k k k k k k k k k k k k k k k k k k k k k k k k k k k k k k k k k k k k k k k k k k k k k k k k k k k k k k k l m p 8 ",
"q h i o k k k k k k k k k k k k s u v v z k k k s v v B z k k k k k k k k k k k k k k k k k k k k k k k k k k k k k k k k k l m p 8 ",
"q h i o k k k k k k k k k k k k k F G v H k k I J K v L k k k k k k k k k k k k k k k k k k k k k k k k k k k k k k k k k k l m p 8 ",
"q h i o k k k k k k k k k k k k k M N v O k k P Q R S T k t t.D 3.B 1.`  ...+.@.K G #.v.O V w.k x.v J k k k k k k k k k k k l m p 8 ",
"q h i o k k k j k k k k k k k k t K L v ..k r $.%.v &.k k u.g.y.z.v +.k P v >.,.'.v ).k :.v A.k B.v C.k k k k k k k k k k k l m p 8 ",
"q h i o k k k j k k k k k k k k !.~.{.R K k ].^.F v C k D.v ).E.e.b.z k :.v <.k [.v }.k  .v F.k G.v w k k k k k k k k k k k l m p 8 ",
"q h i o k k k k k k k k k k k k =.Q k $.v z |.k |.v 1.k H.v >.O I.L k k 6.v 7.k 8.v 9.k B R n.k &.v /.k k k k k k k k k k k l m p 8 ",
"q h i o k k k k k k k k k k k k  .0.k +.v U 7.{.a.b.c.k Q v =.k k k k T g.U k k $.v h.J.v ~.k t K S t k k k k k k k k k k k l m p 8 ",
"g h i o k k k k k k k k k k k k 3.i.k :.v H k j.v J k k K.v $.L.z.N z L v (.k n.v U k M.v N.z.O.v 4.k k k k k k k k k k k k l m p 8 ",
"g h i o k k k k k k k k k k o.-.v &.h.[.J P.^.$.v S F k k A.U Q.p.<.k t.v u.k t >.R &.z.R.R D L Z R M S.k k k k k k k k k k l m p 8 ",
"g h i o k k k k k k k k k k k k k k k k k k k k k k k k k k k k k k k k k k k k k k k k k k k k k k k k k k k k k k k k k k l m p 8 ",
"g h i o k k k k k k k k k k k k k k k k k k k k k k k k k k k k k k k k k k k k k k k k k k k k k k k k k y k k k k k k k k l m p T.",
"g h i o k k k k k k k k k k k k k k k k k k k k k k k k k k k k k k k k k k k k k k k k k k k k k k k k k k k k k k k k k k l m p T.",
"g h i o k k k k k k k k k k k k k k k k k k k k k k k k k k k k k k k k k k k k k k k k k k k k k k k k k k k k k k k k k k l m p T.",
"g h i o k k k k k k k k k k k k k k k k k k k k k k k k k k k k k k k k k k k k k k k k k k k k k k k k k k k k k k k k k k l m p T.",
"g U.i o k k k k k k k k k k k k k k k k k k k k k k k k k k k k k k k k k k k k k k k k k k k k k k k k k k k k k k k k k k l m p V.",
"g h W.X.A A A A A A A A A A A A A A A A A A A A A A A A A A A A A A A A A A A A A A A A A A A A A A A A A A A A A A A A A A j Y.n f ",
"Z.`. +.+++++++++++++++++++++++++++++++++++++++++++++++++++++++++++++++++++++++++++++++++++++++++++++++++++++++++++++++++++a @+A e 8 ",
"Z.#+$+%+&+&+&+&+&+&+&+&+&+&+&+&+&+&+&+&+&+&+&+&+&+&+&+&+&+&+&+&+&+&+&+&+&+&+&+&+&+&+&+&+&+&+&+&+&+&+&+&+&+&+&+&+&+&+&+&+&+&+*+=+-+;+",
">+,+'+)+)+)+)+)+)+)+)+)+)+)+)+)+)+)+)+)+)+)+)+)+)+)+)+)+)+)+)+)+)+)+)+)+)+)+)+)+)+)+)+)+)+)+)+)+)+)+)+)+)+)+)+)+)+)+)+)+)+)+!+~+{+>+",
"  ]+^+/+/+/+/+/+/+/+/+/+/+/+/+/+/+/+/+/+/+/+/+/+/+/+/+/+/+/+/+/+/+/+/+/+/+/+/+/+/+/+/+/+/+/+/+/+/+/+/+/+/+/+/+/+/+/+/+/+/+/+(+_+:+  "};
