/* XPM */
static xpm_row_t const colher[] = {
"60 39 336 2",
"  	c None",
". 	c #7B746E",
"+ 	c #86827C",
"@ 	c #87847F",
"# 	c #746D67",
"$ 	c #6C635B",
"% 	c #655A52",
"& 	c #62574F",
"* 	c #61564F",
"= 	c #645A54",
"- 	c #6C635D",
"; 	c #726A64",
"> 	c #6B635B",
", 	c #5E5249",
"' 	c #60544A",
") 	c #60554D",
"! 	c #61554D",
"~ 	c #5F534B",
"{ 	c #5D5047",
"] 	c #60534B",
"^ 	c #675D56",
"/ 	c #776F6A",
"( 	c #76706A",
"_ 	c #746C67",
": 	c #60544C",
"< 	c #5E5248",
"[ 	c #62564D",
"} 	c #665D55",
"| 	c #685F57",
"1 	c #675D55",
"2 	c #63574F",
"3 	c #5E5148",
"4 	c #5C4F47",
"5 	c #6E665E",
"6 	c #7E7872",
"7 	c #9A9894",
"8 	c #675D57",
"9 	c #63584F",
"0 	c #696058",
"a 	c #6B625B",
"b 	c #695F57",
"c 	c #60554C",
"d 	c #5D5148",
"e 	c #60544B",
"f 	c #665C54",
"g 	c #6E655D",
"h 	c #7A746D",
"i 	c #979590",
"j 	c #B8B8B6",
"k 	c #C7C8C8",
"l 	c #5D4F49",
"m 	c #594A42",
"n 	c #6D645D",
"o 	c #706861",
"p 	c #6D655D",
"q 	c #6A6059",
"r 	c #655A53",
"s 	c #5F544B",
"t 	c #61564D",
"u 	c #685E56",
"v 	c #77716A",
"w 	c #A2A19E",
"x 	c #D3D5D5",
"y 	c #E4E5E5",
"z 	c #E2E2E2",
"A 	c #574841",
"B 	c #5B4D45",
"C 	c #645951",
"D 	c #6E665F",
"E 	c #736B64",
"F 	c #716861",
"G 	c #6D645C",
"H 	c #62574E",
"I 	c #645A52",
"J 	c #9C9996",
"K 	c #E0E0DF",
"L 	c #FBFBFB",
"M 	c #F6F7F8",
"N 	c #E5E8E8",
"O 	c #5E514B",
"P 	c #5A4C44",
"Q 	c #6C645C",
"R 	c #756D66",
"S 	c #766F68",
"T 	c #767068",
"U 	c #726A63",
"V 	c #6C635C",
"W 	c #6B615A",
"X 	c #706860",
"Y 	c #8C8984",
"Z 	c #CACAC9",
"` 	c #EDEDED",
" .	c #EBECEC",
"..	c #E5E7E7",
"+.	c #C6C8C7",
"@.	c #5E5149",
"#.	c #685D55",
"$.	c #7C766F",
"%.	c #807B74",
"&.	c #7D7871",
"*.	c #7C7670",
"=.	c #7A746E",
"-.	c #78716A",
";.	c #7A736C",
">.	c #87837E",
",.	c #A8A7A5",
"'.	c #BCBEBD",
").	c #C6C8C8",
"!.	c #D3D5D6",
"~.	c #B1B1B0",
"{.	c #6F6762",
"].	c #61554E",
"^.	c #7B756E",
"/.	c #827E77",
"(.	c #85827B",
"_.	c #86837C",
":.	c #898680",
"<.	c #8C8983",
"[.	c #8D8A84",
"}.	c #8D8B86",
"|.	c #93918D",
"1.	c #B3B6B4",
"2.	c #C6C9C9",
"3.	c #D1D4D5",
"4.	c #CED1D1",
"5.	c #BEC0BF",
"6.	c #6B625D",
"7.	c #60544D",
"8.	c #645952",
"9.	c #706760",
"0.	c #86837D",
"a.	c #8C8A84",
"b.	c #94938E",
"c.	c #9E9D98",
"d.	c #A1A19E",
"e.	c #A9A9A7",
"f.	c #BCBCBB",
"g.	c #CFD0CF",
"h.	c #DCDFDE",
"i.	c #E4E8E9",
"j.	c #E1E4E5",
"k.	c #D2D4D5",
"l.	c #BBBCBB",
"m.	c #645953",
"n.	c #807B75",
"o.	c #8D8B85",
"p.	c #9B9A96",
"q.	c #AAABA8",
"r.	c #B3B4B2",
"s.	c #CACBCC",
"t.	c #E9EAEB",
"u.	c #F6F7F7",
"v.	c #F9FAFA",
"w.	c #F2F5F5",
"x.	c #D6D9D9",
"y.	c #B5B7B5",
"z.	c #A09F9C",
"A.	c #635952",
"B.	c #61574E",
"C.	c #6B6159",
"D.	c #777069",
"E.	c #ADAFAC",
"F.	c #BFC2C1",
"G.	c #DCDEDF",
"H.	c #FDFDFD",
"I.	c #F5F7F7",
"J.	c #DCDEDE",
"K.	c #B1B2B0",
"L.	c #908E89",
"M.	c #85807B",
"N.	c #695F59",
"O.	c #7D7872",
"P.	c #A3A29F",
"Q.	c #D5D8D8",
"R.	c #E8EBEC",
"S.	c #D3D6D6",
"T.	c #AEAEAC",
"U.	c #7F7A73",
"V.	c #726B64",
"W.	c #7B7570",
"X.	c #78726B",
"Y.	c #827D77",
"Z.	c #8E8B86",
"`.	c #9C9B97",
" +	c #ABACA9",
".+	c #BBBEBD",
"++	c #C0C3C2",
"@+	c #A8A9A6",
"#+	c #8D8A85",
"$+	c #7E7972",
"%+	c #908C89",
"&+	c #837E79",
"*+	c #8A8782",
"=+	c #A9A9A6",
"-+	c #BEBEBD",
";+	c #BBBCBA",
">+	c #AEAFAD",
",+	c #A2A29F",
"'+	c #8F8D88",
")+	c #78716B",
"!+	c #79746D",
"~+	c #918F8A",
"{+	c #A5A5A2",
"]+	c #C3C4C2",
"^+	c #D2D4D2",
"/+	c #CDCFCE",
"(+	c #BBBDBB",
"_+	c #A5A5A3",
":+	c #908D88",
"<+	c #837F79",
"[+	c #7A736D",
"}+	c #6D655E",
"|+	c #6B625C",
"1+	c #746C66",
"2+	c #85817C",
"3+	c #969590",
"4+	c #969591",
"5+	c #9D9C99",
"6+	c #ACABA8",
"7+	c #BDBEBC",
"8+	c #BABAB8",
"9+	c #A3A3A0",
"0+	c #959390",
"a+	c #93908D",
"b+	c #79736F",
"c+	c #979694",
"d+	c #C0C1C1",
"e+	c #CFD0D0",
"f+	c #C5C5C4",
"g+	c #898581",
"h+	c #9A9895",
"i+	c #999794",
"j+	c #C8C9C9",
"k+	c #D6D6D6",
"l+	c #D8D9D9",
"m+	c #CCCDCD",
"n+	c #DDDFDF",
"o+	c #D0D1D0",
"p+	c #D8DAD9",
"q+	c #DADCDC",
"r+	c #D3D4D3",
"s+	c #D2D3D4",
"t+	c #D5D6D6",
"u+	c #D1D2D2",
"v+	c #DFE1E1",
"w+	c #D9DBDB",
"x+	c #D4D5D5",
"y+	c #E1E2E2",
"z+	c #DEDFDF",
"A+	c #DCDEDD",
"B+	c #E1E3E3",
"C+	c #E3E4E5",
"D+	c #D1D3D2",
"E+	c #CDCECE",
"F+	c #EAECEC",
"G+	c #D9DBDC",
"H+	c #C3C5C6",
"I+	c #D3D4D5",
"J+	c #E3E6E6",
"K+	c #E5E8E9",
"L+	c #D7DAD9",
"M+	c #CBCDCC",
"N+	c #C2C3C2",
"O+	c #BFC0C0",
"P+	c #DBDEDD",
"Q+	c #E8EBEB",
"R+	c #E6E8E9",
"S+	c #DADBDB",
"T+	c #CECFD0",
"U+	c #BEC0BE",
"V+	c #BDBEBE",
"W+	c #D2D5D5",
"X+	c #EBEEEE",
"Y+	c #F3F6F6",
"Z+	c #EEF0F0",
"`+	c #E0E2E2",
" @	c #D1D3D3",
".@	c #CDCFCF",
"+@	c #BBBCBC",
"@@	c #ECEEEF",
"#@	c #F9FBFB",
"$@	c #F9FAFB",
"%@	c #F1F4F4",
"&@	c #E3E5E6",
"*@	c #DEE0E1",
"=@	c #D8DADB",
"-@	c #D3D4D4",
";@	c #EBEDED",
">@	c #FDFEFE",
",@	c #FBFDFD",
"'@	c #F8FAFA",
")@	c #D5D7D7",
"!@	c #D4D4D4",
"~@	c #D2D3D3",
"{@	c #EAECED",
"]@	c #FAFBFC",
"^@	c #FFFFFF",
"/@	c #FEFEFE",
"(@	c #F6F8F8",
"_@	c #ECEDEE",
":@	c #E0E3E3",
"<@	c #D2D4D4",
"[@	c #EDEFF0",
"}@	c #FBFBFC",
"|@	c #FEFFFF",
"1@	c #FEFEFF",
"2@	c #FBFCFD",
"3@	c #F4F6F6",
"4@	c #E5E9EA",
"5@	c #D7DADB",
"6@	c #BDBEBD",
"7@	c #EDEEEF",
"8@	c #FAFBFB",
"9@	c #F6FAFA",
"0@	c #EBEFF0",
"a@	c #D4D7D7",
"b@	c #BABCBA",
"c@	c #ECEEEE",
"d@	c #CFD1D1",
"e@	c #B8BAB8",
"f@	c #FDFDFE",
"g@	c #E4E6E6",
"h@	c #E9EBEC",
"i@	c #F3F5F6",
"j@	c #FCFDFD",
"k@	c #FCFCFC",
"l@	c #D7D9D9",
"m@	c #DCDDDD",
"n@	c #E5E7E8",
"o@	c #EEEFF0",
"p@	c #F3F4F4",
"q@	c #E8E9E9",
"r@	c #DBDCDC",
"s@	c #D2D2D2",
"t@	c #CBCBCB",
"u@	c #D8D9D8",
"        . + @                                                                                                           ",
"    # $ % & * = - ; #                                                                                                   ",
"    > , ' ) ! ~ { { ] ^ / (                                                                                             ",
"  _ : < [ } | 1 2 3 4 : % 5 6 7                                                                                         ",
"  8 { , 9 0 a b % c d e f g h i j k                                                                                     ",
"  l m { % n o p q r s , t u v w x y z                                                                                   ",
"    A B C D E F o G f 2 H I D J K L M N                                                                                 ",
"    O P ! Q R S T S U D V W X Y Z `  ...+.                                                                              ",
"      * @.#.R $.%.%.&.*.=.-.;.>.,.'.).!.).~.                                                                            ",
"      {.].[ n ^./.(._.:.<.[.}.|.w 1.2.3.4.5.                                                                            ",
"        6.7.8.9.&.0.a.b.c.d.e.f.g.h.i.j.k.l.                                                                            ",
"          m.c f U n.o.p.q.r.s.t.u.v.w.x.y.z.                                                                            ",
"            A.B.C.D.+ 7 E.F.G.M H.I.J.K.L.M.                                                                            ",
"              N.V S O.[.P.'.Q.R.R.S.T.Y U.V.                                                                            ",
"                W.X.Y.Z.`. +.+2.++@+#+$+R b #.                                                                          ",
"                %+&+*+=+-+;+r.>+,+'+/.)+n C.9.!+                                                                        ",
"                    ~+{+]+^+/+(+_+:+<+[+}+|+1+2+3+@+                                                                    ",
"                      4+5+6+7+8+9+0+a+        b+c+d+e+f+                                                                ",
"                          g+h+w i+                  j+k+l+                                                              ",
"                                                        m+n+o+                                                          ",
"                                                          m+p+q+r+                                                      ",
"                                                              s+q+t+                                                    ",
"                                                                u+v+w+x+                                                ",
"                                                                      y+z+t+                                            ",
"                                                                        A+B+C+D+                                        ",
"                                                                          E+v+F+G+H+                                    ",
"                                                                              I+J+K+L+M+N+                              ",
"                                                                                O+P+Q+R+S+T+U+                          ",
"                                                                                  V+W+X+Y+Z+`+ @.@                      ",
"                                                                                    +@W+@@#@$@%@Q+&@*@=@                ",
"                                                                                        -@;@$@>@,@'@I.X+`+)@!@          ",
"                                                                                          ~@{@]@^@^@/@,@(@_@:@<@e+      ",
"                                                                                              [@}@^@^@|@1@2@3@4@5@.@6@  ",
"                                                                                                7@8@^@^@^@>@,@9@0@a@b@  ",
"                                                                                                  c@8@^@^@^@|@]@@@d@e@~.",
"                                                                                                    ;@u.]@f@^@8@..j+l.~.",
"                                                                                                      g@h@i@j@k@ .l@)@  ",
"                                                                                                        m@n@o@p@q@p+r@  ",
"                                                                                                            s@t@u@      "};
