/* XPM */
static xpm_row_t const loading7[] = {
"95 95 21 1",
" 	c None",
".	c #DB832B",
"+	c #FFFFFF",
"@	c #D98A3C",
"#	c #FCFAF8",
"$	c #FDFBF9",
"%	c #FEFEFD",
"&	c #E5CBB0",
"*	c #DF9448",
"=	c #E1BC97",
"-	c #E49D56",
";	c #E49C55",
">	c #E39B53",
",	c #E39B54",
"'	c #E1BC96",
")	c #E1BA93",
"!	c #E19F5C",
"~	c #E19F5B",
"{	c #E1B588",
"]	c #E1A568",
"^	c #E3AD77",
"                                               .                                               ",
"                                             .....                                             ",
"                                            .......                                            ",
"                                           .........                                           ",
"                                           .........                                           ",
"                                           .........                                           ",
"                        +++                .........                @@@                        ",
"                       ++++++              .........              @@@@@@                       ",
"                      ++++++++             .........             @@@@@@@@                      ",
"                      ++++++++             .........             @@@@@@@@                      ",
"                      +++++++++            .........            @@@@@@@@@                      ",
"                      ++++++++++           .........           @@@@@@@@@@                      ",
"                      ++++++++++           .........           @@@@@@@@@@                      ",
"                       ++++++++++          .........          @@@@@@@@@@                       ",
"                       #++++++++++         .........         @@@@@@@@@@@                       ",
"                        ++++++++++         .........         @@@@@@@@@@                        ",
"                        +++++++++++        .........        @@@@@@@@@@@                        ",
"                         ++++++++++        .........        @@@@@@@@@@                         ",
"                          ++++++++++       .........       @@@@@@@@@@                          ",
"                          $+++++++++       .........       @@@@@@@@@@                          ",
"                           ++++++++++      .........      @@@@@@@@@@                           ",
"                           %+++++++++       .......       @@@@@@@@@@                           ",
"        &&&&&               ++++++++++      .......      @@@@@@@@@@               *****        ",
"       &&&&&&&&              +++++++++       .....       @@@@@@@@@              ********       ",
"       &&&&&&&&&&            $++++++++                   @@@@@@@@@            **********       ",
"      &&&&&&&&&&&&            +++++++                     @@@@@@@            ************      ",
"      &&&&&&&&&&&&&&           ++++++                     @@@@@@           **************      ",
"       &&&&&&&&&&&&&&&          ++++                       @@@@          ***************       ",
"       &&&&&&&&&&&&&&&&                                                 ****************       ",
"        &&&&&&&&&&&&&&&&&                                             *****************        ",
"          &&&&&&&&&&&&&&&&&                                         *****************          ",
"           &&&&&&&&&&&&&&&&                                         ****************           ",
"             &&&&&&&&&&&&&&&                                       ***************             ",
"              &&&&&&&&&&&&&&                                       **************              ",
"                &&&&&&&&&&&&                                       ************                ",
"                  &&&&&&&&&                                         *********                  ",
"                    &&&&&&&                                         *******                    ",
"                      &&&&                                           ****                      ",
"                                                                                               ",
"                                                                                               ",
"                                                                                               ",
"                                                                                               ",
"                                                                                               ",
"   ==================                                                     --------------;>>,   ",
"  =====================                                                 ---------------------  ",
" =======================                                               ----------------------- ",
" =======================                                               ----------------------- ",
"========================                                               ------------------------",
" =======================                                               ----------------------- ",
" =======================                                               ----------------------- ",
"  =====================                                                 ---------------------  ",
"   ='================                                                     ,,;---------------   ",
"                                                                                               ",
"                                                                                               ",
"                                                                                               ",
"                                                                                               ",
"                                                                                               ",
"                      ))))                                           !!!!                      ",
"                    )))))))                                         !!!!!!!                    ",
"                  )))))))))                                         !!!!!!!!!                  ",
"                ))))))))))))                                       !!!!!!!!!!!!                ",
"              ))))))))))))))                                       !!!!!!!!!!!!!~              ",
"             )))))))))))))))                                       !!!!!!!!!!!!!!!             ",
"           ))))))))))))))))                                         !!!!!!!!!!!!!!!!           ",
"          )))))))))))))))))                                         !!!!!!!!!!!!!!!!!          ",
"        )))))))))))))))))                                             !!!!!!!!!!!!!!!!!        ",
"       ))))))))))))))))                                                 !!!!!!!!!!!!!!!!       ",
"       )))))))))))))))          {{{{                       ]]]]          !!!!!!!!!!!!!!!       ",
"      ))))))))))))))           {{{{{{                     ]]]]]]           !!!!!!!!!!!!!!      ",
"      ))))))))))))            {{{{{{{                     ]]]]]]]            !!!!!!!!!!!!      ",
"       ))))))))))            {{{{{{{{{                   ]]]]]]]]]            !!!!!!!!!!       ",
"       ))))))))              {{{{{{{{{       ^^^^^       ]]]]]]]]]              !!!!!!!!       ",
"        )))))               {{{{{{{{{{      ^^^^^^^      ]]]]]]]]]]               !!!!!        ",
"                           {{{{{{{{{{       ^^^^^^^       ]]]]]]]]]]                           ",
"                           {{{{{{{{{{      ^^^^^^^^^      ]]]]]]]]]]                           ",
"                          {{{{{{{{{{       ^^^^^^^^^       ]]]]]]]]]]                          ",
"                          {{{{{{{{{{       ^^^^^^^^^       ]]]]]]]]]]                          ",
"                         {{{{{{{{{{        ^^^^^^^^^        ]]]]]]]]]]                         ",
"                        {{{{{{{{{{{        ^^^^^^^^^        ]]]]]]]]]]]                        ",
"                        {{{{{{{{{{         ^^^^^^^^^         ]]]]]]]]]]                        ",
"                       {{{{{{{{{{{         ^^^^^^^^^         ]]]]]]]]]]]                       ",
"                       {{{{{{{{{{          ^^^^^^^^^          ]]]]]]]]]]                       ",
"                      {{{{{{{{{{           ^^^^^^^^^           ]]]]]]]]]]                      ",
"                      {{{{{{{{{{           ^^^^^^^^^           ]]]]]]]]]]                      ",
"                      {{{{{{{{{            ^^^^^^^^^            ]]]]]]]]]                      ",
"                      {{{{{{{{             ^^^^^^^^^             ]]]]]]]]                      ",
"                      {{{{{{{{             ^^^^^^^^^             ]]]]]]]]                      ",
"                       {{{{{{              ^^^^^^^^^              ]]]]]]                       ",
"                        {{{                ^^^^^^^^^                ]]]                        ",
"                                           ^^^^^^^^^                                           ",
"                                           ^^^^^^^^^                                           ",
"                                           ^^^^^^^^^                                           ",
"                                            ^^^^^^^                                            ",
"                                             ^^^^^                                             ",
"                                               ^                                               "};
