/* XPM */
static xpm_row_t const loading1[] = {
"95 95 29 1",
" 	c None",
".	c #E3AD77",
"+	c #E1A568",
"@	c #E1B588",
"#	c #E19F5C",
"$	c #E1BA93",
"%	c #E49D56",
"&	c #E1BC97",
"*	c #DF9448",
"=	c #E5CBB0",
"-	c #E4C7AA",
";	c #E3C3A3",
">	c #E3C4A4",
",	c #E3C4A5",
"'	c #E5CAAE",
")	c #D98A3C",
"!	c #FFFFFF",
"~	c #DB832B",
"{	c #FDFBF9",
"]	c #F0E1D4",
"^	c #FAF6F2",
"/	c #F0E1D3",
"(	c #FAF6F3",
"_	c #F3E8DD",
":	c #FFFEFE",
"<	c #EFE0D2",
"[	c #FCFAF8",
"}	c #F7F0EA",
"|	c #FEFEFD",
"                                               .                                               ",
"                                             .....                                             ",
"                                            .......                                            ",
"                                           .........                                           ",
"                                           .........                                           ",
"                                           .........                                           ",
"                        +++                .........                @@@                        ",
"                       ++++++              .........              @@@@@@                       ",
"                      ++++++++             .........             @@@@@@@@                      ",
"                      ++++++++             .........             @@@@@@@@                      ",
"                      +++++++++            .........            @@@@@@@@@                      ",
"                      ++++++++++           .........           @@@@@@@@@@                      ",
"                      ++++++++++           .........           @@@@@@@@@@                      ",
"                       ++++++++++          .........          @@@@@@@@@@                       ",
"                       +++++++++++         .........         @@@@@@@@@@@                       ",
"                        ++++++++++         .........         @@@@@@@@@@                        ",
"                        +++++++++++        .........        @@@@@@@@@@@                        ",
"                         ++++++++++        .........        @@@@@@@@@@                         ",
"                          ++++++++++       .........       @@@@@@@@@@                          ",
"                          ++++++++++       .........       @@@@@@@@@@                          ",
"                           ++++++++++      .........      @@@@@@@@@@                           ",
"                           ++++++++++       .......       @@@@@@@@@@                           ",
"        #####               ++++++++++      .......      @@@@@@@@@@               $$$$$        ",
"       ########              +++++++++       .....       @@@@@@@@@              $$$$$$$$       ",
"       ##########            +++++++++                   @@@@@@@@@            $$$$$$$$$$       ",
"      ############            +++++++                     @@@@@@@            $$$$$$$$$$$$      ",
"      ##############           ++++++                     @@@@@@           $$$$$$$$$$$$$$      ",
"       ###############          ++++                       @@@@          $$$$$$$$$$$$$$$       ",
"       ################                                                 $$$$$$$$$$$$$$$$       ",
"        #################                                             $$$$$$$$$$$$$$$$$        ",
"          #################                                         $$$$$$$$$$$$$$$$$          ",
"           ################                                         $$$$$$$$$$$$$$$$           ",
"             ###############                                       $$$$$$$$$$$$$$$             ",
"              ##############                                       $$$$$$$$$$$$$$              ",
"                ############                                       $$$$$$$$$$$$                ",
"                  #########                                         $$$$$$$$$                  ",
"                    #######                                         $$$$$$$                    ",
"                      ####                                           $$$$                      ",
"                                                                                               ",
"                                                                                               ",
"                                                                                               ",
"                                                                                               ",
"                                                                                               ",
"   %%%%%%%%%%%%%%%%%%                                                     &&&&&&&&&&&&&&&&&&   ",
"  %%%%%%%%%%%%%%%%%%%%%                                                 &&&&&&&&&&&&&&&&&&&&&  ",
" %%%%%%%%%%%%%%%%%%%%%%%                                               &&&&&&&&&&&&&&&&&&&&&&& ",
" %%%%%%%%%%%%%%%%%%%%%%%                                               &&&&&&&&&&&&&&&&&&&&&&& ",
"%%%%%%%%%%%%%%%%%%%%%%%%                                               &&&&&&&&&&&&&&&&&&&&&&&&",
" %%%%%%%%%%%%%%%%%%%%%%%                                               &&&&&&&&&&&&&&&&&&&&&&& ",
" %%%%%%%%%%%%%%%%%%%%%%%                                               &&&&&&&&&&&&&&&&&&&&&&& ",
"  %%%%%%%%%%%%%%%%%%%%%                                                 &&&&&&&&&&&&&&&&&&&&&  ",
"   %%%%%%%%%%%%%%%%%%                                                     &&&&&&&&&&&&&&&&&&   ",
"                                                                                               ",
"                                                                                               ",
"                                                                                               ",
"                                                                                               ",
"                                                                                               ",
"                      ****                                           =-;>                      ",
"                    *******                                         ======,                    ",
"                  *********                                         ========'                  ",
"                ************                                       ============                ",
"              **************                                       ==============              ",
"             ***************                                       ===============             ",
"           ****************                                         ================           ",
"          *****************                                         =================          ",
"        *****************                                             =================        ",
"       ****************                                                 ================       ",
"       ***************          ))))                       !!!!          ===============       ",
"      **************           ))))))                     !!!!!!           ==============      ",
"      ************            )))))))                     !!!!!!!            ============      ",
"       **********            )))))))))                   !!!!!!!!!            ==========       ",
"       ********              )))))))))       ~~~~~       !!!!!!!!!              ========       ",
"        *****               ))))))))))      ~~~~~~~      !!!!!!!!!{               =====        ",
"                           ))))))))))       ~~~~~~~       !!!!!!!!!]                           ",
"                           ))))))))))      ~~~~~~~~~      !!!!!!!!!^                           ",
"                          ))))))))))       ~~~~~~~~~       !!!!!!!!!/                          ",
"                          ))))))))))       ~~~~~~~~~       !!!!!!!!!(                          ",
"                         ))))))))))        ~~~~~~~~~        !!!!!!!!!_                         ",
"                        )))))))))))        ~~~~~~~~~        !!!!!!!!!:<                        ",
"                        ))))))))))         ~~~~~~~~~         !!!!!!!!![                        ",
"                       )))))))))))         ~~~~~~~~~         !!!!!!!!!!}                       ",
"                       ))))))))))          ~~~~~~~~~          !!!!!!!!!!                       ",
"                      ))))))))))           ~~~~~~~~~           !!!!!!!!!|                      ",
"                      ))))))))))           ~~~~~~~~~           !!!!!!!!!!                      ",
"                      )))))))))            ~~~~~~~~~            !!!!!!!!!                      ",
"                      ))))))))             ~~~~~~~~~             !!!!!!!!                      ",
"                      ))))))))             ~~~~~~~~~             !!!!!!!!                      ",
"                       ))))))              ~~~~~~~~~              !!!!!!                       ",
"                        )))                ~~~~~~~~~                !!!                        ",
"                                           ~~~~~~~~~                                           ",
"                                           ~~~~~~~~~                                           ",
"                                           ~~~~~~~~~                                           ",
"                                            ~~~~~~~                                            ",
"                                             ~~~~~                                             ",
"                                               ~                                               "};
