/* XPM */
static xpm_row_t const loading4[] = {
"95 95 17 1",
" 	c None",
".	c #E1BC97",
"+	c #E1BA93",
"@	c #E5CBB0",
"#	c #E1B588",
"$	c #E1BA92",
"%	c #FFFFFF",
"&	c #E3AD77",
"*	c #DB832B",
"=	c #E1A568",
"-	c #D98A3C",
";	c #E19F5C",
">	c #DF9448",
",	c #E49D56",
"'	c #DE9347",
")	c #E39B53",
"!	c #E1974D",
"                                               .                                               ",
"                                             .....                                             ",
"                                            .......                                            ",
"                                           .........                                           ",
"                                           .........                                           ",
"                                           .........                                           ",
"                        +++                .........                @@@                        ",
"                       ++++++              .........              @@@@@@                       ",
"                      ++++++++             .........             @@@@@@@@                      ",
"                      ++++++++             .........             @@@@@@@@                      ",
"                      +++++++++            .........            @@@@@@@@@                      ",
"                      ++++++++++           .........           @@@@@@@@@@                      ",
"                      ++++++++++           .........           @@@@@@@@@@                      ",
"                       ++++++++++          .........          @@@@@@@@@@                       ",
"                       +++++++++++         .........         @@@@@@@@@@@                       ",
"                        ++++++++++         .........         @@@@@@@@@@                        ",
"                        +++++++++++        .........        @@@@@@@@@@@                        ",
"                         ++++++++++        .........        @@@@@@@@@@                         ",
"                          ++++++++++       .........       @@@@@@@@@@                          ",
"                          ++++++++++       .........       @@@@@@@@@@                          ",
"                           ++++++++++      .........      @@@@@@@@@@                           ",
"                           ++++++++++       .......       @@@@@@@@@@                           ",
"        #####               $+++++++++      .......      @@@@@@@@@@               %%%%%        ",
"       ########              +++++++++       .....       @@@@@@@@@              %%%%%%%%       ",
"       ##########            +++++++++                   @@@@@@@@@            %%%%%%%%%%       ",
"      ############            +++++++                     @@@@@@@            %%%%%%%%%%%%      ",
"      ##############           ++++++                     @@@@@@           %%%%%%%%%%%%%%      ",
"       ###############          ++++                       @@@@          %%%%%%%%%%%%%%%       ",
"       ################                                                 %%%%%%%%%%%%%%%%       ",
"        #################                                             %%%%%%%%%%%%%%%%%        ",
"          #################                                         %%%%%%%%%%%%%%%%%          ",
"           ################                                         %%%%%%%%%%%%%%%%           ",
"             ###############                                       %%%%%%%%%%%%%%%             ",
"              ##############                                       %%%%%%%%%%%%%%              ",
"                ############                                       %%%%%%%%%%%%                ",
"                  #########                                         %%%%%%%%%                  ",
"                    #######                                         %%%%%%%                    ",
"                      ####                                           %%%%                      ",
"                                                                                               ",
"                                                                                               ",
"                                                                                               ",
"                                                                                               ",
"                                                                                               ",
"   &&&&&&&&&&&&&&&&&&                                                     ******************   ",
"  &&&&&&&&&&&&&&&&&&&&&                                                 *********************  ",
" &&&&&&&&&&&&&&&&&&&&&&&                                               *********************** ",
" &&&&&&&&&&&&&&&&&&&&&&&                                               *********************** ",
"&&&&&&&&&&&&&&&&&&&&&&&&                                               ************************",
" &&&&&&&&&&&&&&&&&&&&&&&                                               *********************** ",
" &&&&&&&&&&&&&&&&&&&&&&&                                               *********************** ",
"  &&&&&&&&&&&&&&&&&&&&&                                                 *********************  ",
"   &&&&&&&&&&&&&&&&&&                                                     ******************   ",
"                                                                                               ",
"                                                                                               ",
"                                                                                               ",
"                                                                                               ",
"                                                                                               ",
"                      ====                                           ----                      ",
"                    =======                                         -------                    ",
"                  =========                                         ---------                  ",
"                ============                                       ------------                ",
"              ==============                                       --------------              ",
"             ===============                                       ---------------             ",
"           ================                                         ----------------           ",
"          =================                                         -----------------          ",
"        =================                                             -----------------        ",
"       ================                                                 ----------------       ",
"       ===============          ;;;;                       >>>>          ---------------       ",
"      ==============           ;;;;;;                     >>>>>>           --------------      ",
"      ============            ;;;;;;;                     >>>>>>>            ------------      ",
"       ==========            ;;;;;;;;;                   >>>>>>>>>            ----------       ",
"       ========              ;;;;;;;;;       ,,,,,       >>>>>>>>>              --------       ",
"        =====               ;;;;;;;;;;      ,,,,,,,      >>>>>>>>>>               -----        ",
"                           ;;;;;;;;;;       ,,,,,,,       >>>>>>>>>>                           ",
"                           ;;;;;;;;;;      ,,,,,,,,,      >>>>>>>>>>                           ",
"                          ;;;;;;;;;;       ,,,,,,,,,       >>>>>>>>>>                          ",
"                          ;;;;;;;;;;       ,,,,,,,,,       >>>>>>>>>>                          ",
"                         ;;;;;;;;;;        ,,,,,,,,,        >>>>>>>>>>                         ",
"                        ;;;;;;;;;;;        ,,,,,,,,,        >>>>>>>>>>>                        ",
"                        ;;;;;;;;;;         ,,,,,,,,,         >>>>>>>>>>                        ",
"                       ;;;;;;;;;;;         ,,,,,,,,,         >>>>>>>>>>'                       ",
"                       ;;;;;;;;;;          ,,,,,,,,,          >>>>>>>>>>                       ",
"                      ;;;;;;;;;;           ,,,,,,,,,           >>>>>>>>>>                      ",
"                      ;;;;;;;;;;           ,,,,,,,,,           >>>>>>>>>>                      ",
"                      ;;;;;;;;;            ,,,,,,,,,            >>>>>>>>>                      ",
"                      ;;;;;;;;             ,,,,,,,,,             >>>>>>>>                      ",
"                      ;;;;;;;;             ,,,,,,,,,             >>>>>>>>                      ",
"                       ;;;;;;              ,,,,,,,,,              >>>>>>                       ",
"                        ;;;                ,,,,,,,,,                >>>                        ",
"                                           ,,,,,,,,,                                           ",
"                                           ),,,,,,,,                                           ",
"                                           !,,,,,,,,                                           ",
"                                            ,,,,,,,                                            ",
"                                             ,,,,,                                             ",
"                                               ,                                               "};
