/* XPM */
static xpm_row_t const loading0[] = {
"95 95 24 1",
" 	c None",
".	c #E1A568",
"+	c #E19F5C",
"@	c #E3AD77",
"#	c #E1A267",
"$	c #E49D56",
"%	c #E1B588",
"&	c #E1A26B",
"*	c #DF9448",
"=	c #E1BA93",
"-	c #D98A3C",
";	c #E1BC97",
">	c #D9904E",
",	c #DB832B",
"'	c #E5CBB0",
")	c #F6FCFF",
"!	c #F0FAFF",
"~	c #EFFAFF",
"{	c #F5FCFF",
"]	c #F7FCFF",
"^	c #F3FBFF",
"/	c #F1FAFF",
"(	c #F4FBFF",
"_	c #FDFEFF",
"                                               .                                               ",
"                                             .....                                             ",
"                                            .......                                            ",
"                                           .........                                           ",
"                                           .........                                           ",
"                                           .........                                           ",
"                        +++                .........                @@@                        ",
"                       ++++++              .........              @@@@@@                       ",
"                      ++++++++             .........             @@@@@@@@                      ",
"                      ++++++++             .........             @@@@@@@@                      ",
"                      +++++++++            .........            @@@@@@@@@                      ",
"                      ++++++++++           .........           @@@@@@@@@@                      ",
"                      ++++++++++           .........           @@@@@@@@@@                      ",
"                       ++++++++++          .........          @@@@@@@@@@                       ",
"                       +++++++++++         .........         @@@@@@@@@@@                       ",
"                        ++++++++++         .........         @@@@@@@@@@                        ",
"                        +++++++++++        .........        @@@@@@@@@@@                        ",
"                         ++++++++++        .........        @@@@@@@@@@                         ",
"                          ++++++++++       .........       @@@@@@@@@@                          ",
"                          ++++++++++       .........       @@@@@@@@@@                          ",
"                           ++++++++++      .........      @@@@@@@@@@                           ",
"                           #+++++++++       .......       @@@@@@@@@@                           ",
"        $$$$$               ++++++++++      .......      @@@@@@@@@@               %%%%%        ",
"       $$$$$$$$              +++++++++       .....       @@@@@@@@@              %%%%%%%%       ",
"       $$$$$$$$$$            +++++++++                   @@@@@@@@@            %%%%%%%%%%       ",
"      $$$$$$$$$$$$            +++++++                     @@@@@@@            %%%%%%%%%%%%      ",
"      $$$$$$$$$$$$$$           ++++++                     @@@@@@           %%%%%%%%%%%%%%      ",
"       $$$$$$$$$$$$$$$          ++++                       @@@@          %%%%%%%%%%%%%%%       ",
"       $$$$$$$$$$$$$$$$                                                 %%%%%%%%%%%%%%%%       ",
"        $$$$$$$$$$$$$$$$&                                             %%%%%%%%%%%%%%%%%        ",
"          $$$$$$$$$$$$$$$$$                                         %%%%%%%%%%%%%%%%%          ",
"           $$$$$$$$$$$$$$$$                                         %%%%%%%%%%%%%%%%           ",
"             $$$$$$$$$$$$$$$                                       %%%%%%%%%%%%%%%             ",
"              $$$$$$$$$$$$$$                                       %%%%%%%%%%%%%%              ",
"                $$$$$$$$$$$$                                       %%%%%%%%%%%%                ",
"                  $$$$$$$$$                                         %%%%%%%%%                  ",
"                    $$$$$$$                                         %%%%%%%                    ",
"                      $$$$                                           %%%%                      ",
"                                                                                               ",
"                                                                                               ",
"                                                                                               ",
"                                                                                               ",
"                                                                                               ",
"   ******************                                                     ==================   ",
"  *********************                                                 =====================  ",
" ***********************                                               ======================= ",
" ***********************                                               ======================= ",
"************************                                               ========================",
" ***********************                                               ======================= ",
" ***********************                                               ======================= ",
"  *********************                                                 =====================  ",
"   ******************                                                     ==================   ",
"                                                                                               ",
"                                                                                               ",
"                                                                                               ",
"                                                                                               ",
"                                                                                               ",
"                      ----                                           ;;;;                      ",
"                    -------                                         ;;;;;;;                    ",
"                  ---------                                         ;;;;;;;;;                  ",
"                ------------                                       ;;;;;;;;;;;;                ",
"              --------------                                       ;;;;;;;;;;;;;;              ",
"             ---------------                                       ;;;;;;;;;;;;;;;             ",
"           ----------------                                         ;;;;;;;;;;;;;;;;           ",
"          ---------------->                                         ;;;;;;;;;;;;;;;;;          ",
"        -----------------                                             ;;;;;;;;;;;;;;;;;        ",
"       ----------------                                                 ;;;;;;;;;;;;;;;;       ",
"       ---------------          ,,,,                       ''''          ;;;;;;;;;;;;;;;       ",
"      --------------           ,,,,,,                     ''''''           ;;;;;;;;;;;;;;      ",
"      ------------            ,,,,,,,                     '''''''            ;;;;;;;;;;;;      ",
"       ----------            ,,,,,,,,,                   '''''''''            ;;;;;;;;;;       ",
"       --------              ,,,,,,,,,       )!~!)       '''''''''              ;;;;;;;;       ",
"        -----               ,,,,,,,,,,      {~~~~~{      ''''''''''               ;;;;;        ",
"                           ,,,,,,,,,,       ~~~~~~~       ''''''''''                           ",
"                           ,,,,,,,,,,      ]~~~~~~~]      ''''''''''                           ",
"                          ,,,,,,,,,,       ^~~~~~~~^       ''''''''''                          ",
"                          ,,,,,,,,,,       /~~~~~~~/       ''''''''''                          ",
"                         ,,,,,,,,,,        ~~~~~~~~~        ''''''''''                         ",
"                        ,,,,,,,,,,,        ~~~~~~~~~        '''''''''''                        ",
"                        ,,,,,,,,,,         ~~~~~~~~~         ''''''''''                        ",
"                       ,,,,,,,,,,,         ~~~~~~~~~         '''''''''''                       ",
"                       ,,,,,,,,,,          ~~~~~~~~~          ''''''''''                       ",
"                      ,,,,,,,,,,           ~~~~~~~~~           ''''''''''                      ",
"                      ,,,,,,,,,,           ~~~~~~~~~           ''''''''''                      ",
"                      ,,,,,,,,,            ~~~~~~~~~            '''''''''                      ",
"                      ,,,,,,,,             ~~~~~~~~~             ''''''''                      ",
"                      ,,,,,,,,             ~~~~~~~~~             ''''''''                      ",
"                       ,,,,,,              ~~~~~~~~~              ''''''                       ",
"                        ,,,                ~~~~~~~~!                '''                        ",
"                                           ^~~~~~~~^                                           ",
"                                           (~~~~~~~]                                           ",
"                                           _~~~~~~~_                                           ",
"                                            (~~~~~(                                            ",
"                                             (!~!(                                             ",
"                                               _                                               "};
