/* XPM */
static xpm_row_t const loading3[] = {
"95 95 29 1",
" 	c None",
".	c #E1BA93",
"+	c #E1B588",
"@	c #E1BC97",
"#	c #E1BC96",
"$	c #E3AD77",
"%	c #E5CBB0",
"&	c #E1A568",
"*	c #FFFFFF",
"=	c #E19F5B",
"-	c #E19F5C",
";	c #DB832B",
">	c #E29D56",
",	c #E39B53",
"'	c #E29E59",
")	c #E49D57",
"!	c #E39D57",
"~	c #E39E58",
"{	c #E29F5B",
"]	c #E29E5A",
"^	c #E49D56",
"/	c #D98A3C",
"(	c #DF9448",
"_	c #E29A52",
":	c #E49C55",
"<	c #E39B54",
"[	c #DF9347",
"}	c #DE9246",
"|	c #DD9144",
"                                               .                                               ",
"                                             .....                                             ",
"                                            .......                                            ",
"                                           .........                                           ",
"                                           .........                                           ",
"                                           .........                                           ",
"                        +++                .........                @@@                        ",
"                       ++++++              .........              @@@@@@                       ",
"                      ++++++++             .........             @@@@@@@@                      ",
"                      ++++++++             .........             @@@@@@@@                      ",
"                      +++++++++            .........            @@@@@@@@@                      ",
"                      ++++++++++           .........           @@@@@@@@@@                      ",
"                      ++++++++++           .........           @@@@@@@@@@                      ",
"                       ++++++++++          .........          @@@@@@@@@@                       ",
"                       +++++++++++         .........         @@@@@@@@@@@                       ",
"                        ++++++++++         .........         @@@@@@@@@@                        ",
"                        +++++++++++        .........        @@@@@@@@@@@                        ",
"                         ++++++++++        .........        @@@@@@@@@@                         ",
"                          ++++++++++       .........       @@@@@@@@@@                          ",
"                          ++++++++++       .........       @@@@@@@@@@                          ",
"                           ++++++++++      .........      #@@@@@@@@@                           ",
"                           ++++++++++       .......       @@@@@@@@@@                           ",
"        $$$$$               ++++++++++      .......      @@@@@@@@@@               %%%%%        ",
"       $$$$$$$$              +++++++++       .....       @@@@@@@@@              %%%%%%%%       ",
"       $$$$$$$$$$            +++++++++                   @@@@@@@@@            %%%%%%%%%%       ",
"      $$$$$$$$$$$$            +++++++                     @@@@@@@            %%%%%%%%%%%%      ",
"      $$$$$$$$$$$$$$           ++++++                     @@@@@@           %%%%%%%%%%%%%%      ",
"       $$$$$$$$$$$$$$$          ++++                       @@@@          %%%%%%%%%%%%%%%       ",
"       $$$$$$$$$$$$$$$$                                                 %%%%%%%%%%%%%%%%       ",
"        $$$$$$$$$$$$$$$$$                                             %%%%%%%%%%%%%%%%%        ",
"          $$$$$$$$$$$$$$$$$                                         %%%%%%%%%%%%%%%%%          ",
"           $$$$$$$$$$$$$$$$                                         %%%%%%%%%%%%%%%%           ",
"             $$$$$$$$$$$$$$$                                       %%%%%%%%%%%%%%%             ",
"              $$$$$$$$$$$$$$                                       %%%%%%%%%%%%%%              ",
"                $$$$$$$$$$$$                                       %%%%%%%%%%%%                ",
"                  $$$$$$$$$                                         %%%%%%%%%                  ",
"                    $$$$$$$                                         %%%%%%%                    ",
"                      $$$$                                           %%%%                      ",
"                                                                                               ",
"                                                                                               ",
"                                                                                               ",
"                                                                                               ",
"                                                                                               ",
"   &&&&&&&&&&&&&&&&&&                                                     ******************   ",
"  &&&&&&&&&&&&&&&&&&&&&                                                 *********************  ",
" &&&&&&&&&&&&&&&&&&&&&&&                                               *********************** ",
" &&&&&&&&&&&&&&&&&&&&&&&                                               *********************** ",
"&&&&&&&&&&&&&&&&&&&&&&&&                                               ************************",
" &&&&&&&&&&&&&&&&&&&&&&&                                               *********************** ",
" &&&&&&&&&&&&&&&&&&&&&&&                                               *********************** ",
"  &&&&&&&&&&&&&&&&&&&&&                                                 *********************  ",
"   &&&&&&&&&&&&&&&&&&                                                     ******************   ",
"                                                                                               ",
"                                                                                               ",
"                                                                                               ",
"                                                                                               ",
"                                                                                               ",
"                      =---                                           ;;;;                      ",
"                    >=-----                                         ;;;;;;;                    ",
"                  ,'-------                                         ;;;;;;;;;                  ",
"                )'----------                                       ;;;;;;;;;;;;                ",
"              !~{-----------                                       ;;;;;;;;;;;;;;              ",
"             ]--------------                                       ;;;;;;;;;;;;;;;             ",
"           ]---------------                                         ;;;;;;;;;;;;;;;;           ",
"          -----------------                                         ;;;;;;;;;;;;;;;;;          ",
"        -----------------                                             ;;;;;;;;;;;;;;;;;        ",
"       ----------------                                                 ;;;;;;;;;;;;;;;;       ",
"       ---------------          ^^^^                       ////          ;;;;;;;;;;;;;;;       ",
"      --------------           ^^^^^^                     //////           ;;;;;;;;;;;;;;      ",
"      ------------            ^^^^^^^                     ///////            ;;;;;;;;;;;;      ",
"       ----------            ^^^^^^^^^                   /////////            ;;;;;;;;;;       ",
"       --------              ^^^^^^^^^       (((((       /////////              ;;;;;;;;       ",
"        -----               ^^^^^^^^^^      (((((((      //////////               ;;;;;        ",
"                           ,^^^^^^^^^       (((((((       //////////                           ",
"                           ^^^^^^^^^^      (((((((((      //////////                           ",
"                          _^^^^^^^^^       (((((((((       //////////                          ",
"                          ^^^^^^^^^^       (((((((((       //////////                          ",
"                         :^^^^^^^^^        (((((((((        //////////                         ",
"                        <^^^^^^^^^^        (((((((((        ///////////                        ",
"                        ^^^^^^^^^^         (((((((((         //////////                        ",
"                       ^^^^^^^^^^^         (((((((((         ///////////                       ",
"                       ^^^^^^^^^^          (((((((((          //////////                       ",
"                      ^^^^^^^^^^           (((((((((           //////////                      ",
"                      ^^^^^^^^^^           (((((((((           //////////                      ",
"                      ^^^^^^^^^            (((((((((            /////////                      ",
"                      ^^^^^^^^             (((((((((             ////////                      ",
"                      ^^^^^^^^             (((((((((             ////////                      ",
"                       ^^^^^^              (((((((((              //////                       ",
"                        ^^^                (((((((((                ///                        ",
"                                           (((((((([                                           ",
"                                           ((((((((}                                           ",
"                                           ((((((((|                                           ",
"                                            (((((((                                            ",
"                                             (((((                                             ",
"                                               (                                               "};
