/* XPM */
static xpm_row_t const loading5[] = {
"95 95 21 1",
" 	c None",
".	c #E5CBB0",
"+	c #E1BC97",
"@	c #FFFFFF",
"#	c #E1BB94",
"$	c #E1BB95",
"%	c #E1BA93",
"&	c #E1BC96",
"*	c #E1BA94",
"=	c #E1BB96",
"-	c #DB832B",
";	c #E1B991",
">	c #E1B588",
",	c #D98A3C",
"'	c #E3AD77",
")	c #DF9448",
"!	c #E1A568",
"~	c #E49D56",
"{	c #E19F5C",
"]	c #E39A52",
"^	c #E39B53",
"                                               .                                               ",
"                                             .....                                             ",
"                                            .......                                            ",
"                                           .........                                           ",
"                                           .........                                           ",
"                                           .........                                           ",
"                        +++                .........                @@@                        ",
"                       ++++++              .........              @@@@@@                       ",
"                      ++++++++             .........             @@@@@@@@                      ",
"                      ++++++++             .........             @@@@@@@@                      ",
"                      +++++++++            .........            @@@@@@@@@                      ",
"                      ++++++++++           .........           @@@@@@@@@@                      ",
"                      ++++++++++           .........           @@@@@@@@@@                      ",
"                       ++++++++++          .........          @@@@@@@@@@                       ",
"                       #++++++++++         .........         @@@@@@@@@@@                       ",
"                        $+++++++++         .........         @@@@@@@@@@                        ",
"                        %&+++++++++        .........        @@@@@@@@@@@                        ",
"                         *+++++++++        .........        @@@@@@@@@@                         ",
"                          =+++++++++       .........       @@@@@@@@@@                          ",
"                          %+++++++++       .........       @@@@@@@@@@                          ",
"                           $+++++++++      .........      @@@@@@@@@@                           ",
"                           =+++++++++       .......       @@@@@@@@@@                           ",
"        %%%%%               ++++++++++      .......      @@@@@@@@@@               -----        ",
"       %%%%%%%%              +++++++++       .....       @@@@@@@@@              --------       ",
"       %%%%%%%%%%            +++++++++                   @@@@@@@@@            ----------       ",
"      %%%%%%%%%%%%            +++++++                     @@@@@@@            ------------      ",
"      %%%%%%%%%%%%%%           ++++++                     @@@@@@           --------------      ",
"       %%%%%%%%%%%%%%%          ++++                       @@@@          ---------------       ",
"       %%%%%%%%%%%%%%%%                                                 ----------------       ",
"        %%%%%%%%%%%%%%%%%                                             -----------------        ",
"          %%%%%%%%%%%%%%%%;                                         -----------------          ",
"           %%%%%%%%%%%%%%%%                                         ----------------           ",
"             %%%%%%%%%%%%%%%                                       ---------------             ",
"              %%%%%%%%%%%%%%                                       --------------              ",
"                %%%%%%%%%%%%                                       ------------                ",
"                  %%%%%%%%%                                         ---------                  ",
"                    %%%%%%%                                         -------                    ",
"                      %%%%                                           ----                      ",
"                                                                                               ",
"                                                                                               ",
"                                                                                               ",
"                                                                                               ",
"                                                                                               ",
"   >>>>>>>>>>>>>>>>>>                                                     ,,,,,,,,,,,,,,,,,,   ",
"  >>>>>>>>>>>>>>>>>>>>>                                                 ,,,,,,,,,,,,,,,,,,,,,  ",
" >>>>>>>>>>>>>>>>>>>>>>>                                               ,,,,,,,,,,,,,,,,,,,,,,, ",
" >>>>>>>>>>>>>>>>>>>>>>>                                               ,,,,,,,,,,,,,,,,,,,,,,, ",
">>>>>>>>>>>>>>>>>>>>>>>>                                               ,,,,,,,,,,,,,,,,,,,,,,,,",
" >>>>>>>>>>>>>>>>>>>>>>>                                               ,,,,,,,,,,,,,,,,,,,,,,, ",
" >>>>>>>>>>>>>>>>>>>>>>>                                               ,,,,,,,,,,,,,,,,,,,,,,, ",
"  >>>>>>>>>>>>>>>>>>>>>                                                 ,,,,,,,,,,,,,,,,,,,,,  ",
"   >>>>>>>>>>>>>>>>>>                                                     ,,,,,,,,,,,,,,,,,,   ",
"                                                                                               ",
"                                                                                               ",
"                                                                                               ",
"                                                                                               ",
"                                                                                               ",
"                      ''''                                           ))))                      ",
"                    '''''''                                         )))))))                    ",
"                  '''''''''                                         )))))))))                  ",
"                ''''''''''''                                       ))))))))))))                ",
"              ''''''''''''''                                       ))))))))))))))              ",
"             '''''''''''''''                                       )))))))))))))))             ",
"           ''''''''''''''''                                         ))))))))))))))))           ",
"          '''''''''''''''''                                         )))))))))))))))))          ",
"        '''''''''''''''''                                             )))))))))))))))))        ",
"       ''''''''''''''''                                                 ))))))))))))))))       ",
"       '''''''''''''''          !!!!                       ~~~~          )))))))))))))))       ",
"      ''''''''''''''           !!!!!!                     ~~~~~~           ))))))))))))))      ",
"      ''''''''''''            !!!!!!!                     ~~~~~~~            ))))))))))))      ",
"       ''''''''''            !!!!!!!!!                   ~~~~~~~~~            ))))))))))       ",
"       ''''''''              !!!!!!!!!       {{{{{       ~~~~~~~~~              ))))))))       ",
"        '''''               !!!!!!!!!!      {{{{{{{      ~~~~~~~~~~               )))))        ",
"                           !!!!!!!!!!       {{{{{{{       ~~~~~~~~~~                           ",
"                           !!!!!!!!!!      {{{{{{{{{      ~~~~~~~~~~                           ",
"                          !!!!!!!!!!       {{{{{{{{{       ~~~~~~~~~~                          ",
"                          !!!!!!!!!!       {{{{{{{{{       ~~~~~~~~~~                          ",
"                         !!!!!!!!!!        {{{{{{{{{        ~~~~~~~~~~                         ",
"                        !!!!!!!!!!!        {{{{{{{{{        ~~~~~~~~~~~                        ",
"                        !!!!!!!!!!         {{{{{{{{{         ~~~~~~~~~~                        ",
"                       !!!!!!!!!!!         {{{{{{{{{         ~~~~~~~~~~~                       ",
"                       !!!!!!!!!!          {{{{{{{{{          ~~~~~~~~~~                       ",
"                      !!!!!!!!!!           {{{{{{{{{           ~~~~~~~~~~                      ",
"                      !!!!!!!!!!           {{{{{{{{{           ~~~~~~~~~~                      ",
"                      !!!!!!!!!            {{{{{{{{{            ~~~~~~~~~                      ",
"                      !!!!!!!!             {{{{{{{{{             ~~~~~~~~                      ",
"                      !!!!!!!!             {{{{{{{{{             ]~~~~~~~                      ",
"                       !!!!!!              {{{{{{{{{              ^~~~~~                       ",
"                        !!!                {{{{{{{{{                ~~~                        ",
"                                           {{{{{{{{{                                           ",
"                                           {{{{{{{{{                                           ",
"                                           {{{{{{{{{                                           ",
"                                            {{{{{{{                                            ",
"                                             {{{{{                                             ",
"                                               {                                               "};
