/* XPM */
static xpm_row_t const mini_1[] = {
"18 21 4 1",
" 	c None",
".	c #545454",
"+	c #555555",
"@	c #535353",
"            .....+",
"          ........",
"       .......... ",
"     ............ ",
"     .@   ....... ",
"          ......  ",
"          ......  ",
"         .......  ",
"         ......   ",
"         ......   ",
"         ......   ",
"        .......   ",
"        @......   ",
"        ......    ",
"        ......    ",
"       .......    ",
"       ......     ",
"       .....+     ",
"      ........    ",
"   .............  ",
" ................."};
