/* XPM */
static xpm_row_t const mini_8[] = {
"18 21 4 1",
" 	c None",
".	c #545454",
"+	c #535353",
"@	c #555555",
"        .+..++    ",
"      ....+....@  ",
"    ....    ..... ",
"   +...      .... ",
"   ....      .... ",
"   ....      .... ",
"   ....      ...+ ",
"   ....@    +...  ",
"   @......  ...   ",
"    @........     ",
"     @........    ",
"    ... .......   ",
"  ....    ......  ",
" ....      .....  ",
"+....       ....  ",
"+...        ....  ",
"....        ...@  ",
".....      ....   ",
" .....    ....    ",
"  ...........     ",
"    ......        "};
