/* XPM */
static xpm_row_t const mini_6[] = {
"18 21 4 1",
" 	c None",
".	c #535353",
"+	c #555555",
"@	c #545454",
"         .+@@@@@  ",
"       +@@@@@@@@@ ",
"      @@@   @@@@. ",
"     @@@      @@  ",
"    @@@           ",
"   @@@@           ",
"  @@@@            ",
"  @@@@            ",
" @@@@+  .@@@+     ",
" @@@@@ @@@@@@@    ",
" @@@@@@@@+@@@@@   ",
" @@@@.     @@@@+  ",
"@@@@@      @@@@@  ",
"@@@@@      @@@@@  ",
"@@@@@      @@@@+  ",
"@@@@.      +@@@.  ",
" @@@@      @@@@   ",
" @@@@     @@@@@   ",
"  @@@+    @@@.    ",
"  @@@@@.@@@@      ",
"    @.@@@+        "};
