/* XPM */
static xpm_row_t const mira_xpm[] = {
"40 38 2 1",
" 	c None",
".	c #000000",
"                ........                ",
"            ................            ",
"          ....................          ",
"         ......................         ",
"       .......    ....    .......       ",
"      ......       ..       ......      ",
"     .....         ..         .....     ",
"    .....          ..          .....    ",
"   .....           ..           .....   ",
"   ....            ..            ....   ",
"  ....             ..             ....  ",
"  ....             ..             ....  ",
" ....              ..              .... ",
" ....              ..              .... ",
" ...               ..               ... ",
" ...               ..               ... ",
" ...               ..               ... ",
".....              ..              .....",
"........................................",
"........................................",
".....              ..              .....",
" ...               ..               ... ",
" ...               ..               ... ",
" ...               ..               ... ",
" ....              ..              .... ",
" ....              ..              .... ",
"  ....             ..             ....  ",
"  ....             ..             ....  ",
"   ....            ..            ....   ",
"   .....           ..           .....   ",
"    .....          ..          .....    ",
"     .....         ..         .....     ",
"      ......       ..       ......      ",
"       .......    ....    .......       ",
"         ......................         ",
"          ....................          ",
"            ................            ",
"                ........                "};
