/* XPM */
static xpm_row_t const num_8[] = {
"40 58 108 2",
"  	c None",
". 	c #D1D1D1",
"+ 	c #CBCBCB",
"@ 	c #C3C3C3",
"# 	c #BBBBBB",
"$ 	c #B5B5B5",
"% 	c #AEAEAE",
"& 	c #A8A8A8",
"* 	c #A2A2A2",
"= 	c #9C9C9C",
"- 	c #959595",
"; 	c #DEDEDE",
"> 	c #D5D5D5",
", 	c #CECECE",
"' 	c #C6C6C6",
") 	c #BFBFBF",
"! 	c #B8B8B8",
"~ 	c #B1B1B1",
"{ 	c #ABABAB",
"] 	c #A5A5A5",
"^ 	c #9F9F9F",
"/ 	c #989898",
"( 	c #929292",
"_ 	c #8C8C8C",
": 	c #858585",
"< 	c #7E7E7E",
"[ 	c #7A7A7A",
"} 	c #DFDFDF",
"| 	c #DADADA",
"1 	c #D2D2D2",
"2 	c #C8C8C8",
"3 	c #BCBCBC",
"4 	c #B4B4B4",
"5 	c #A3A3A3",
"6 	c #9A9A9A",
"7 	c #969696",
"8 	c #919191",
"9 	c #878787",
"0 	c #818181",
"a 	c #7B7B7B",
"b 	c #7D7D7D",
"c 	c #848484",
"d 	c #8B8B8B",
"e 	c #E0E0E0",
"f 	c #DCDCDC",
"g 	c #D7D7D7",
"h 	c #CACACA",
"i 	c #BDBDBD",
"j 	c #AFAFAF",
"k 	c #AAAAAA",
"l 	c #A6A6A6",
"m 	c #A1A1A1",
"n 	c #9D9D9D",
"o 	c #999999",
"p 	c #949494",
"q 	c #909090",
"r 	c #838383",
"s 	c #DBDBDB",
"t 	c #C0C0C0",
"u 	c #B6B6B6",
"v 	c #ADADAD",
"w 	c #A9A9A9",
"x 	c #A4A4A4",
"y 	c #A0A0A0",
"z 	c #979797",
"A 	c #939393",
"B 	c #8E8E8E",
"C 	c #8A8A8A",
"D 	c #868686",
"E 	c #797979",
"F 	c #7C7C7C",
"G 	c #888888",
"H 	c #A7A7A7",
"I 	c #D9D9D9",
"J 	c #CCCCCC",
"K 	c #B0B0B0",
"L 	c #ACACAC",
"M 	c #9E9E9E",
"N 	c #8D8D8D",
"O 	c #808080",
"P 	c #787878",
"Q 	c #828282",
"R 	c #B3B3B3",
"S 	c #7F7F7F",
"T 	c #CFCFCF",
"U 	c #DDDDDD",
"V 	c #C7C7C7",
"W 	c #9B9B9B",
"X 	c #898989",
"Y 	c #D4D4D4",
"Z 	c #8F8F8F",
"` 	c #C9C9C9",
" .	c #B7B7B7",
"..	c #BABABA",
"+.	c #BEBEBE",
"@.	c #B2B2B2",
"#.	c #C4C4C4",
"$.	c #C1C1C1",
"%.	c #C5C5C5",
"&.	c #B9B9B9",
"*.	c #D0D0D0",
"=.	c #CDCDCD",
"-.	c #D6D6D6",
";.	c #D8D8D8",
">.	c #C2C2C2",
",.	c #D3D3D3",
"'.	c #E1E1E1",
").	c #777777",
"                              . + @ # $ % & * = -                               ",
"                        ; > , ' ) ! ~ { ] ^ / ( _ : < [                         ",
"                    } | 1 2 3 4 % & 5 ^ 6 7 8 _ 9 0 a b c d 7                   ",
"                e f g h i 4 j k l m n o p q _ 9 r < [ [ r q 6 *                 ",
"              } s 1 t u ~ v w x y = z A B C D 0 b E E F 0 G z H ~               ",
"            ; I J # 4 K L H 5 M 6 7 8 N G c O F P [ < Q 9 d q = 4 t             ",
"          ; g 2 ! R % k ] m n / p q d 9 Q < [ E a S c G N 8 - 6 l @ T           ",
"        U > V u ~ v w x y W z A B C D 0 b E E b 0 : X B ( z W ^ x R > U         ",
"        Y 2 u K L H 5 M 6 7 8 N X c O a E [ < Q D d Z p / n m ] w j 2 g Y       ",
"      . `  .% k ] m n o p Z _ 9 Q < [ E a S r G N 8 - o M * l { j 4 ..h 2       ",
"      2 3 v w x y = z A Z C D 0 b [ F Q 9 C d B ( 7 W ^ x & v K $ ..+.@ )       ",
"    V +.j H * ^ 6 - 8 N X c S F F : Z z M * 5 W / = m ] w % @.u # t #.V u ~     ",
"    i $ l m n o p q _ G r < [ b d ( / y H v R  .w 5 l k j R ! 3 $.%.h , $ H     ",
"    4 k y W z ( Z C D Q b E [ d p             @ #.L L ~ $ &.+.@ V + *.Y # M     ",
"    L * 6 7 8 N X c O a E [ 9 7                 1 t @. .# t #.` =.1 -.| @ 7     ",
"    5 6 p q _ 9 r < [ E a O p ^                 s T &.i $.' h T Y ;.f U >.N     ",
"    6 A B C D 0 b E E F 0 D n H                 s =.+.@ V J *.> | U s g i :     ",
"    ( N X : O F P [ < Q D d 5 ~                 . 2 #.2 =.. -.s U | -.. 4 F     ",
"    X : r S [ P a S r G _ 8 5 !               T ` V h T ,.g f f I Y *.+ & a     ",
"    O b b E P F 0 : X B ( z M +.h             ' #.J *.> I U f g 1 , h #.6 Q     ",
"    a F E [ < Q 9 d Z p / n m R *.|       =.#.t + 1 -.s U | -.. J V @ i N d     ",
"      c Q O r G _ 8 - 6 M * l L $.I g . ` >.$.+ ,.;.f f I Y *.+ ' >.i L Z p     ",
"      N Z D C B ( z W ^ x & v ~ u t h ' >.#.T Y I f s g ,., ` %.t 3  .n z       ",
"      / W 7 Z A / = y ] w % @.u # ) #.V + . -.| f | -.. =.2 @ ) # u { o M       ",
"        l & 6 o M * H k j 4 ! 3 $.%.h , ,.;.f f I Y T + ' >.i &.$ % ^ m         ",
"          4 4 5 x & L ~ $ ..+.@ V J *.> I U s g 1 , ` %.t #  .R % x 5           ",
"          ) @ +.L % @. .# t #.` =.1 -.s U | -.. J 2 @ ) ..u ~ v l ] L           ",
"            T 1 J u ! i $.%.h T ,.;.f f I Y *.+ V >.i &.$ K { l H %             ",
"            U s I #.+.@ V J *.> | f s g 1 , ` %.t 3  .R % k l w K ..            ",
"          U f -.' t #.` =.. -.| U | -.. =.2 @ ) # u @.v w ] y * R t h           ",
"        } s 1 >.$.' h T ,.;.f f I Y T + V >.i &.$ K L H 5 ^ 6 7 6 ..T |         ",
"      '.s T $.>.2 J *.> I U f g ,., h %.t 3 ! R j k l * n o - q d q >.s f       ",
"      | T >.#.2 =.. -.s U | -.. =.V ..y l @.@.v w ] y = z A Z C D Q C %.*.      ",
"    ;.*.#.%.h T ,.;.f f I Y T + $.] : : _ 7 x H 5 ^ 6 7 8 N X c O F P B t $.    ",
"  g T V V J *.> | U s g 1 , ` ..B Q 9   7 W * & * o p q d 9 r < [ P a O ^ u 4   ",
"  =.V ` =.. -.| U | -.. J 2  .G r C         v ~ $ y Z C D Q b E P F 0 : N k &   ",
"  #.' , ,.;.f U I Y *.+ V i N D                 $.$.p c O a E [ b Q D d Z W ^   ",
">.3 =.> I U s ;.,., h %.t 5 G                     *...O [ P [ S r G _ q p o z p ",
"&. .,.s U | -.. =.2 #.)  .q q                     f -.G E F O : X B ( 7 W M q X ",
"K R | f I Y T + ' >.i &.v A o                     } ,.7 < Q 9 d Z A / = m x d O ",
"H K | g 1 , ` %.t 3  .R & W                         + W c G N 8 - o M * l k G [ ",
"M w > . =.2 @ ) # u ~ % l x                         >.o X B ( 7 6 ^ 5 H L K G S ",
"7 y , + V >.+.&.$ K L & x { $                     >.! p Z A / = y ] w v ~ $ B 9 ",
"N 7 ' %.$.3  .R j { l * M L #                     ! & 8 p o n * l k j R  ...p q ",
"D C i ) ..u @.v w x y = z = +.J g             +.u L z 7 W ^ 5 & L K $ &.+.i o 6 ",
"b < R ! 4 K L H 5 ^ 6 - 8 N = ` I U g , 2 $.# 4 k 6 / n m ] w % @.u # t #.) n * ",
"  O * R j { l * n o - q _ G r N @.%.` ' ) u L y / o n * l k j R ! 3 $.%.` $ x   ",
"  C p L w x y = z A Z C D 0 b E ).D ( 7 z 7 - 7 W ^ 5 & L ~ $ &.+.>.V J + { v   ",
"  p / 5 5 ^ W 7 ( N X c O F P [ b Q D C Z A z = y ] w v @.u ..) #.2 =.. $.%     ",
"    m l y / - q _ 9 r S a P [ S r G _ q - o n * l { j R ! 3 $.%.h T ,., 4  .    ",
"      K j / Z C D 0 b E P F O : X B ( 7 W ^ 5 & L ~ $ &.+.>.V J *.> ,.# &.      ",
"      # ) ! - : O F P E b Q D C Z A / = y ] w v @.u # ) @ 2 =.. -.Y +.#         ",
"        h , h n b P a S r G _ q - o M * l { j R ! 3 $.%.h , ,.-., 3 +.#.        ",
"          s f Y K G 0 : X B ( 7 W ^ x & L ~ $ &.+.>.V J *.,.1 >...t             ",
"              ,.h # * A q p / = m ] w % @. .# t #.` J T h t  .# >.              ",
"                %.3 R L m 6 W M * & % R  ...i +.t ) &.K K u i                   ",
"                      H M z q d 9 r r G B A / n m l { @.&.                      ",
"                            _ c b [ S D _ A o m H                               "};
