/* XPM */
static xpm_row_t const num_4[] = {
"40 58 106 2",
"  	c None",
". 	c #CBCBCB",
"+ 	c #D0D0D0",
"@ 	c #D7D7D7",
"# 	c #DBDBDB",
"$ 	c #D8D8D8",
"% 	c #D2D2D2",
"& 	c #C4C4C4",
"* 	c #BDBDBD",
"= 	c #B6B6B6",
"- 	c #AFAFAF",
"; 	c #A8A8A8",
"> 	c #A1A1A1",
", 	c #9B9B9B",
"' 	c #949494",
") 	c #8D8D8D",
"! 	c #878787",
"~ 	c #D4D4D4",
"{ 	c #D3D3D3",
"] 	c #CECECE",
"^ 	c #C9C9C9",
"/ 	c #C3C3C3",
"( 	c #BFBFBF",
"_ 	c #BABABA",
": 	c #B2B2B2",
"< 	c #ACACAC",
"[ 	c #A6A6A6",
"} 	c #A0A0A0",
"| 	c #9A9A9A",
"1 	c #8C8C8C",
"2 	c #7F7F7F",
"3 	c #D6D6D6",
"4 	c #BBBBBB",
"5 	c #BEBEBE",
"6 	c #C7C7C7",
"7 	c #CCCCCC",
"8 	c #D9D9D9",
"9 	c #D5D5D5",
"0 	c #A2A2A2",
"a 	c #7B7B7B",
"b 	c #DCDCDC",
"c 	c #C8C8C8",
"d 	c #CDCDCD",
"e 	c #D1D1D1",
"f 	c #DDDDDD",
"g 	c #DADADA",
"h 	c #808080",
"i 	c #E0E0E0",
"j 	c #C5C5C5",
"k 	c #C0C0C0",
"l 	c #CACACA",
"m 	c #CFCFCF",
"n 	c #C6C6C6",
"o 	c #C1C1C1",
"p 	c #898989",
"q 	c #C2C2C2",
"r 	c #929292",
"s 	c #B5B5B5",
"t 	c #B8B8B8",
"u 	c #B4B4B4",
"v 	c #B0B0B0",
"w 	c #A4A4A4",
"x 	c #BCBCBC",
"y 	c #B3B3B3",
"z 	c #AEAEAE",
"A 	c #AAAAAA",
"B 	c #ABABAB",
"C 	c #ADADAD",
"D 	c #B9B9B9",
"E 	c #B7B7B7",
"F 	c #B1B1B1",
"G 	c #A7A7A7",
"H 	c #A3A3A3",
"I 	c #9F9F9F",
"J 	c #9E9E9E",
"K 	c #999999",
"L 	c #A5A5A5",
"M 	c #9C9C9C",
"N 	c #989898",
"O 	c #939393",
"P 	c #A9A9A9",
"Q 	c #979797",
"R 	c #959595",
"S 	c #919191",
"T 	c #888888",
"U 	c #9D9D9D",
"V 	c #8F8F8F",
"W 	c #8B8B8B",
"X 	c #828282",
"Y 	c #8E8E8E",
"Z 	c #8A8A8A",
"` 	c #858585",
" .	c #818181",
"..	c #7D7D7D",
"+.	c #969696",
"@.	c #848484",
"#.	c #797979",
"$.	c #838383",
"%.	c #7E7E7E",
"&.	c #7A7A7A",
"*.	c #787878",
"=.	c #868686",
"-.	c #7C7C7C",
";.	c #909090",
">.	c #DEDEDE",
",.	c #DFDFDF",
"                                . + @ # $ % . & * = - ; > , ' ) !               ",
"                                % ~ @ { ] ^ / ( _ = : < [ } | 1 2               ",
"                              @ 3 _ 4 5 / 6 7 + ~ 8 # 8 9 + . 0 a               ",
"                              b + 4 ( / c d e 3 # f g 9 + 7 6 } h               ",
"                            i $ j k j l ] { @ b b 8 ~ m l n o } p               ",
"                            3 ] q n . m ~ $ b b @ { ] ^ & k 4 > r               ",
"                            ] 6 6 7 e 9 g f # 3 % d c / ( _ s 0 |               ",
"                          ] j c d % @ # f 8 9 + . 6 q * t u v w 0               ",
"                          / q ] { $ b b $ { m l j o x t y z A [ B               ",
"                          4 ^ ~ 8 f # @ % d ^ & ( 4 = : C ; w ; u               ",
"                        D E % g f g 3 e 7 c / 5 _ s F < G H I B x               ",
"                        v x # f 8 9 m . n q * D u v A [ 0 J K z j               ",
"                      z A + b $ { ] l j o x E y z A L > M N O F ]               ",
"                      [ z $ @ % d c & ( s I P C P w I , Q r ) = @               ",
"                      J _ 9 + 7 6 / 5 D ; O I G H J | R S 1 T _ f               ",
"                    M K l m . j o * t y J , 0 > U K ' V W ! X _ 8               ",
"                    ' w d ^ j k 4 E : B U H L M Q O Y Z `  ...u +               ",
"                    1 s c & 5 _ s F < L L < P +.S ) T @.2 a #.C c               ",
"                  Z Z ( q * D u v B G G z u C S 1 T $.%.&.*.a P (               ",
"                   ., o x E y - A L [ - E * : W =.X ..#.#... .L =               ",
"                %...F 4 = : z P w > C t   n E =.h -.#.&.%.X =.> C               ",
"                &.T s s F < ; H I I E o   ] x h a *.&.2 $.T 1 J L               ",
"                2 U y - B [ 0 U K G q     @ k a *.a h ` p Y O , M               ",
"              @.p < z A L > M N R * .     # 5 &... .=.Z V O N K '               ",
"              Z Q < P w } , Q r I . 9     9 E 2 X ! W ;.' K U Q W               ",
"              S > G H J | R S ) u 9       7 : @.T ) S +.| I H +.$.              ",
"            R | w 0 U K ' ;.1 Y m >.      / < Z Y r Q , } w P ' a               ",
"            M > } M Q O Y Z ` P g >.      4 ; ;.' N U 0 [ A z R ..              ",
"          H w } , +.S ) p @.$.q @         : w R K U 0 G B v u , `               ",
"          G P | R S 1 ! $.2 T d +         A } , I w ; C F = _ 0 Y               ",
"          z L ' ;.W ! X %.&.[ l           > M } w P C : = 4 k P +.              ",
"        u y K Y Z ` h -.*.2 4 q _ : < L J K K [ A - u t x o n v J [ < y _ o c m ",
"        D u V p @.2 a #.&.W E u - P w I | R | B v s D 5 q 6 7 4 z u D * / c m @ ",
"        k w ! X %.&.#.-.h T r R Q | M I 0 L A F = _ ( & ^ d % ~ 9 @ ~ e ] 7 @ ,.",
"      n / )  ...#.#... .=.Z V O N M > L A z y E x k j l m { $ b b $ ~ m l ^ 8 # ",
"      7 D X -.*.&.%.X =.W ;.' K U 0 [ B - u t * o n . m ~ 8 b # @ { ] ^ & j ~   ",
"    { { I a *.a 2 @.T ) S +.| I H ; < F s _ 5 / c 7 e 3 g f g 9 e 7 c / 5 / 7   ",
"    @ m h #.-.h ` p Y r Q , } w P C : = 4 ( & ^ d % 3 # b 8 9 + . n q * D k &   ",
"    b F &... .=.W V O N U > L A - y E x o n l m ~ $ b b @ { ] l j k x E y x x   ",
"  >.~ O %.$.! 1 ;.R K J 0 G B v u D * q 6 . + ~ 8 b # @ % d ^ & k _ = : z E s   ",
"  9 k $.@.T ) S +.| I H ; < F s _ ( & c d e 3 # f # 9 e 7 c q 5 D s v < P - z   ",
"  . } ` Z V O Q , } w P C : E 4 k & ^ ] % @ # b 8 ~ m . n o * t u v B [ w [     ",
". q v ; w } U K +.O ;.Y ) ;.+.M 0 G C y D & # $ { ] ^ j k 4 E _ 4 s z ; H I     ",
"/ x s z ; > | O 1 =.2 a ..@.Z S N I [ < y 5 9 e d c / ( _ = F E t y < L J K     ",
"                                        * & m . 6 q 5 D u v < v F               ",
"                                        c l l j o x t y z A [ ; P               ",
"                                        + + j k 4 E : C P L } > }               ",
"                                        8 @ k _ s F < ; H I | K N               ",
"                                        i 9 _ u v B G 0 U K R r V               ",
"                                        g d s z A L > M N O V W =.              ",
"                                        e j z P w } , Q r Y p @.%.              ",
"                                        ^ x ; H J | R S 1 T $...a               ",
"                                        ( u H U K ' ;.W ! X %.a  .              ",
"                                        E < M N O V Z =. ...#.2 Z               ",
"                                        z w Q r ) p @.2 -.a 2 p r               ",
"                                        [ M S ) ! X -.&.2 =.1 O ,               ",
"                                        U ' ) ! h &.a h ! V                     ",
"                                        ' ) T $.                                "};
