/* XPM */
static xpm_row_t const num_6[] = {
"40 58 105 2",
"  	c None",
". 	c #848484",
"+ 	c #878787",
"@ 	c #909090",
"# 	c #858585",
"$ 	c #898989",
"% 	c #8F8F8F",
"& 	c #969696",
"* 	c #9D9D9D",
"= 	c #A3A3A3",
"- 	c #888888",
"; 	c #8C8C8C",
"> 	c #8E8E8E",
", 	c #868686",
"' 	c #8D8D8D",
") 	c #9E9E9E",
"! 	c #ABABAB",
"~ 	c #B2B2B2",
"{ 	c #B9B9B9",
"] 	c #C1C1C1",
"^ 	c #8B8B8B",
"/ 	c #929292",
"( 	c #9A9A9A",
"_ 	c #A9A9A9",
": 	c #BBBBBB",
"< 	c #C9C9C9",
"[ 	c #CFCFCF",
"} 	c #D7D7D7",
"| 	c #DEDEDE",
"1 	c #949494",
"2 	c #989898",
"3 	c #9C9C9C",
"4 	c #A0A0A0",
"5 	c #A5A5A5",
"6 	c #B1B1B1",
"7 	c #D8D8D8",
"8 	c #D1D1D1",
"9 	c #CCCCCC",
"0 	c #939393",
"a 	c #919191",
"b 	c #959595",
"c 	c #999999",
"d 	c #A2A2A2",
"e 	c #A6A6A6",
"f 	c #AFAFAF",
"g 	c #B3B3B3",
"h 	c #BABABA",
"i 	c #C2C2C2",
"j 	c #C7C7C7",
"k 	c #B5B5B5",
"l 	c #979797",
"m 	c #9B9B9B",
"n 	c #9F9F9F",
"o 	c #A4A4A4",
"p 	c #A8A8A8",
"q 	c #ACACAC",
"r 	c #BDBDBD",
"s 	c #C0C0C0",
"t 	c #A1A1A1",
"u 	c #AAAAAA",
"v 	c #AEAEAE",
"w 	c #B6B6B6",
"x 	c #BFBFBF",
"y 	c #C4C4C4",
"z 	c #A7A7A7",
"A 	c #B0B0B0",
"B 	c #B4B4B4",
"C 	c #B8B8B8",
"D 	c #BCBCBC",
"E 	c #C5C5C5",
"F 	c #BEBEBE",
"G 	c #ADADAD",
"H 	c #C3C3C3",
"I 	c #B7B7B7",
"J 	c #C6C6C6",
"K 	c #CACACA",
"L 	c #C8C8C8",
"M 	c #CECECE",
"N 	c #CBCBCB",
"O 	c #D0D0D0",
"P 	c #CDCDCD",
"Q 	c #D3D3D3",
"R 	c #D5D5D5",
"S 	c #D6D6D6",
"T 	c #D2D2D2",
"U 	c #DBDBDB",
"V 	c #D4D4D4",
"W 	c #DDDDDD",
"X 	c #7F7F7F",
"Y 	c #7A7A7A",
"Z 	c #DADADA",
"` 	c #7C7C7C",
" .	c #828282",
"..	c #D9D9D9",
"+.	c #DCDCDC",
"@.	c #DFDFDF",
"#.	c #838383",
"$.	c #818181",
"%.	c #7D7D7D",
"&.	c #797979",
"*.	c #787878",
"=.	c #7B7B7B",
"-.	c #7E7E7E",
";.	c #808080",
">.	c #8A8A8A",
"                                        . + @                                   ",
"                                      # $ % & * =                               ",
"                                    - ; > , ' ) ! ~ { ]                         ",
"                                  ^ ' @ + $ > / ( _ : < [ } |                   ",
"                                  @ 1 $ ^ % 1 2 3 4 5 6 < 7 7 8 9               ",
"                                0 & ^ ' a b c ) d e ! f g h i j i : k           ",
"                              b c > > / l m n o p q 6 k { r i s { ~             ",
"                            l * / @ 1 2 * t 5 u v ~ w : x y x w 6               ",
"                          ( n & a & ( ) = z ! A B C D ] E F B f                 ",
"                        ) d 3 0 l 3 4 o _ G 6 k h F H j : 6 G                   ",
"                        5 o b c * d e u f g I : s E < h f !                     ",
"                      z u 2 m n = p q A B { r ] J K { G _                       ",
"                    u f n 3 t 5 _ G ~ w h x H L 9 : u z                         ",
"                  v ~ p ) d z ! f g C D s E K M r p o                           ",
"                  B B 4 o p q 6 k { F i j N O ] 5 t                             ",
"                C : 5 e u v ~ I : x y < P 8 < o )                               ",
"              : x ~ z ! A B C r ] E K [ Q 8 5 m                                 ",
"              i s _ G 6 w h F H j 9 O R S p 2                                   ",
"            J N ~ f g I D s y < M T S U k & 0                                   ",
"            P i A k { r i J N [ V 7 W i 1 ' , X Y                               ",
"          O R k w : x H L P 8 R Z W T b ^ # X Y `  .- % &                       ",
"        S ..E C D ] E K M Q } +.W S * n G k C B v p t 3 ) o q                   ",
"        U 7 D F i j 9 O V ..W +.7 O M K J ] r { B A q z = e 6 h i               ",
"      @...J s y < P T S Z W Z S T P L y s : I g v u 5 t * c 2 C < 8             ",
"      } [ i J K [ Q 7 +.W ..V O N j i F { k 6 G p o n 3 l 0 > ; g ..+.          ",
"      M j j 9 O R ..W U } Q M K E ] D C B f ! z d ) ( & a ' - . X w V M         ",
"    N E < M T } U W Z R 8 9 L y x : w ~ v _ 5 4 * 2 1 @ ^ + #.X Y Y C E s       ",
"    i i O V 7 W +.7 V [ N J i r { k A q p = n m l / > $ # $.%.&.*.` # k k       ",
"    { < R Z W U } T M < E s D I g f u e d * c b a ; - #.X =.*.Y -. .+ c G z     ",
"  w 6 V U W ..R O 9 j H x h w 6 G _ o d n c / % ^ ,  .-.Y *.=.;.. - ; @ 4 *     ",
"  v k W +.7 Q [ K J ] r { B A ! z e q ~ C F C c , ;.` *.&.%.$., >.> / l ( 1 %   ",
"  5 J U S T P L y s : I g v u 5 p f k D H < O R D ` *.Y X #.+ ; % 1 2 * t ; #   ",
"  * O V O N j i F h k 6 q p e u 6             +...~ %.;.# $ ' a & ( ) = z 1 `   ",
"( 2 P M < E ] D C B f ! e 5 G ~                 O j l , ^ > 0 l 3 4 o p G e &.  ",
"a 1 < L H x : w ~ v _ 5 t v k                     x B ' @ 1 c * d e u v g ~ # - ",
"$ > y i r { k A q p = n d C F                     I f c & ( n = z ! A B { h @ a ",
";.- s D I g f u e d ) c p ]                         z * 3 t 5 _ G ~ w h x i m ( ",
"&.- h w 6 G _ o 4 3 2 0 ~ K                         ) m d z u f g C D s E < 5 = ",
"-.' B A ! z = n ( & / ' C Q                         b 2 p q A k { F i J N O G ! ",
"+ / G u 5 t * c 1 @ ; + C +.                        ; ( v ~ I : x y L P 8 S k k ",
"a 2 z o 4 m l 0 > >.#  .z ..                        #.= B C r ] E K [ Q } U D F ",
"( n d ) ( b a ' - . ;.` - P <                     $.%.6 h F H j 9 O R ..W Z i J ",
"  z 4 2 1 % ^ + #.-.Y *.Y ! s :                 %.&.m D s y < M T S U W Z V < [ ",
"  6 p / > $ # $.%.*.*.%.$.- 6 A u             =.&.- : i J K [ V 7 +.W 7 V O T   ",
"  h r > - . X =.*.Y -.#.+ ^ 0 5 t m         Y &.$ h H L P 8 R Z W U } T M T Z   ",
"  y < )  .-.&.*.` ;.. - ' a b ( m 0 ^ # -.&.-.c F E < M Q } U W ..R 8 9 K +.U   ",
"    T J Y *.&.%.$.# >.> 0 l m n o e o t t u I i j N O V ..W +.7 Q [ N J M 7     ",
"    +.+.3 Y X #.+ ^ @ 1 c * t 5 u v ~ I : x y L P 8 S Z W U S T P < y i V [     ",
"      Q H # . $ ' / & ( ) = z ! A B C D ] J K M Q 7 +.W ..V O 9 j i F K 9       ",
"      N H G ^ % 0 2 m 4 o _ G 6 w h F H j 9 O R ..W +.} Q M K E ] D i < E       ",
"        : g n b c * t e u f g I D s y < P T S U W Z S 8 P L y x : r J ]         ",
"          ! o 3 n = p q A k { r i J N [ V 7 +.W 7 V [ N j i r { : E F           ",
"            3 1 2 p v ~ w : x H L 9 8 R Z W U } T M < E s D C D i D             ",
"              ' # $ ! C D ] E < M T } U W ..R 8 9 L H x h C ] s h               ",
"                -.&.%.* { j N O V ..W +.7 Q [ N J ] r r ] y r h                 ",
"                    # ; 0 d x M S +.Z S T P K j E J K L i D                     ",
"                        m t p f C x E N O R Z 7 Q P J ]                         ",
"                              I r E N Q Z W Z Q M                               "};
