/* XPM */
static xpm_row_t const num_7[] = {
"40 58 106 2",
"  	c None",
". 	c #818181",
"+ 	c #7C7C7C",
"@ 	c #797979",
"# 	c #7D7D7D",
"$ 	c #848484",
"% 	c #8B8B8B",
"& 	c #919191",
"* 	c #979797",
"= 	c #9E9E9E",
"- 	c #A5A5A5",
"; 	c #ABABAB",
"> 	c #B1B1B1",
", 	c #B8B8B8",
"' 	c #BEBEBE",
") 	c #C5C5C5",
"! 	c #CCCCCC",
"~ 	c #D3D3D3",
"{ 	c #D9D9D9",
"] 	c #DCDCDC",
"^ 	c #D7D7D7",
"/ 	c #D1D1D1",
"( 	c #CACACA",
"_ 	c #C3C3C3",
": 	c #BDBDBD",
"< 	c #B6B6B6",
"[ 	c #AFAFAF",
"} 	c #A9A9A9",
"| 	c #A3A3A3",
"1 	c #9C9C9C",
"2 	c #959595",
"3 	c #8F8F8F",
"4 	c #898989",
"5 	c #828282",
"6 	c #7A7A7A",
"7 	c #7F7F7F",
"8 	c #8A8A8A",
"9 	c #8E8E8E",
"0 	c #939393",
"a 	c #9B9B9B",
"b 	c #A0A0A0",
"c 	c #AAAAAA",
"d 	c #B4B4B4",
"e 	c #BABABA",
"f 	c #BFBFBF",
"g 	c #C4C4C4",
"h 	c #CBCBCB",
"i 	c #D0D0D0",
"j 	c #C6C6C6",
"k 	c #C0C0C0",
"l 	c #B0B0B0",
"m 	c #929292",
"n 	c #858585",
"o 	c #888888",
"p 	c #878787",
"q 	c #8D8D8D",
"r 	c #B3B3B3",
"s 	c #AEAEAE",
"t 	c #A6A6A6",
"u 	c #9F9F9F",
"v 	c #9A9A9A",
"w 	c #7E7E7E",
"x 	c #808080",
"y 	c #949494",
"z 	c #989898",
"A 	c #A8A8A8",
"B 	c #B7B7B7",
"C 	c #909090",
"D 	c #838383",
"E 	c #868686",
"F 	c #B2B2B2",
"G 	c #A1A1A1",
"H 	c #9D9D9D",
"I 	c #999999",
"J 	c #8C8C8C",
"K 	c #7B7B7B",
"L 	c #ADADAD",
"M 	c #A4A4A4",
"N 	c #A2A2A2",
"O 	c #BCBCBC",
"P 	c #A7A7A7",
"Q 	c #969696",
"R 	c #ACACAC",
"S 	c #B5B5B5",
"T 	c #B9B9B9",
"U 	c #C2C2C2",
"V 	c #C7C7C7",
"W 	c #C1C1C1",
"X 	c #C8C8C8",
"Y 	c #787878",
"Z 	c #CECECE",
"` 	c #D4D4D4",
" .	c #BBBBBB",
"..	c #CDCDCD",
"+.	c #D6D6D6",
"@.	c #DADADA",
"#.	c #CFCFCF",
"$.	c #DBDBDB",
"%.	c #777777",
"&.	c #DDDDDD",
"*.	c #D2D2D2",
"=.	c #D5D5D5",
"-.	c #D8D8D8",
";.	c #C9C9C9",
">.	c #DFDFDF",
",.	c #E0E0E0",
"      . + @ # $ % & * = - ; > , ' ) ! ~ { ] ^ / ( _ : < [ } | 1 2 3 4 5 + @ # $ ",
"      6 7 8 9 0 * a b - c [ d e f g h i i h j k e d l c - b 1 * m 9 4 n n o p q ",
"      + 1 < r s c t | u v * 0 3 % o $ . # w x $ o % 3 y z 1 u | A ; [ d B > C 2 ",
"    D E A F s c - G H I y C J p D 7 K @ 6 w 5 p % 3 y z H G - } s F < e ' } z   ",
"    4 3 s L A M b 1 * 0 9 8 E . # @ @ + x $ o q & 2 v = N t ; [ d , O k _ G G   ",
"    3 a ; P N = v Q & q 4 n x + @ @ # . E 8 9 m * a u M A R > S T : U V W M }   ",
"    z N - N H I y C J p D 7 K @ 6 w 5 p % 3 y z H b - } L > < e f _ X ! : ;     ",
"    b | b a * 0 9 8 E 5 # 6 Y + x $ o q & Q v = N P ; [ r , O W ) ( Z / B r     ",
"  - A u v 2 & q 4 $ x + @ @ # . E 8 9 0 * 1 u M A L l S T ' U V h i ` ~ B :     ",
"  ; R I y 3 J p D w 6 Y 6 7 D p J C y z H G - c s F <  .f g X ../ +.@.Z '       ",
"  r P 0 9 8 E . # @ Y + x n 4 q & Q v = | P R [ d , : W ) ( #.~ ^ $.] ( V       ",
" . .1 J o D 7 6 %.Y + . n 8 3 0 * 1 b M } L > S T ' U V h i ` { ] ] ^ h i       ",
"U U l s [ L P N u H 1 v v I z z z z I I a = | [ f g X ../ +.@.&.$.+.*.*.@.      ",
"X Z ~ { { ` ..j k T F L t b v y q p . + K . o s ) ( Z ~ ^ $.] { =./ ~ $.        ",
"                                          4 m f ! i ` { &.] -.~ #...{ &.        ",
"                                          & M ! *.+.@.] $.+.*...;.h ^ ^         ",
"                                          I ' ~ -.] &.{ ` i ! V _ ! i           ",
"                                        = t #.{ ] $.^ ~ Z ( j W ' ( X           ",
"                                        M < { &.@.+.*...;.g k  . ._ _           ",
"                                        L ! ] { ` i ! V U ' e S T  .            ",
"                                      > , -.^ ~ Z ( j W O , d l S d             ",
"                                      T ) =./ ..X _ f  .< F s R l s             ",
"                                      k ! #.h V U : T S l R A A A               ",
"                                    ) X ..( ) W O , r l ; P N | G               ",
"                                    ! Z ;.g f  .< F s c - G H 1 I               ",
"                                    ~ ! U ' T S > R A M u a z 2 0               ",
"                                  @.{ g O , d [ ; P N = v Q m q                 ",
"                                  ] *. .< F s } - G H z y C 8 n                 ",
"                                  +.W S > R A M b a * m 9 4 . w                 ",
"                                =.h < [ ; t N = v 2 & J o . K                   ",
"                                h k s } - b 1 z y 3 % p D K #                   ",
"                              ( U F P | u a Q m 9 4 n . # 7 E                   ",
"                              k , P N = I 2 & J o $ x K w p                     ",
"                              B L G 1 z 0 3 % E 5 w 6 @ E 3                     ",
"                            B [ | a Q m 9 8 n . # @ @ 7 & I                     ",
"                            L t v 2 & q o $ x K @ 6 w % v                       ",
"                            | 1 0 3 % p 5 w 6 @ K 7 n * |                       ",
"                          N 1 0 9 4 n . + @ @ # . n J | ;                       ",
"                          v 0 J o D 7 K Y 6 w 5 p % I L d                       ",
"                          C 8 E 5 w @ @ + x $ o q & } <                         ",
"                        9 o $ . + @ @ # . n 8 9 m v S f                         ",
"                        E x 7 K Y 6 w 5 p % C y z - k ;.                        ",
"                        w 6 @ @ K x $ 4 q & 2 v = B (                           ",
"                      K 6 Y @ # . E 8 9 0 * a u t X `                           ",
"                      + w 6 w D p % 3 y z 1 G - d ` &.                          ",
"                      D D x $ 4 q & 2 v = N P ; g ]                             ",
"                    o % E E 8 9 0 * a u M A R > ~ {                             ",
"                    9 & o % C y z H G - } s F O ` *.                            ",
"                    Q 0 q & 2 v = | t ; [ d , ) !                               ",
"                  1 = y 0 * a b M A R > S e ' j )                               ",
"                  G M Q I H G - c s F B  .k _ W :                               ",
"                  } | v u | P ; l d T O W ) g , B                               ",
"                [ > G b M A L > < e f _ V h O l                                 ",
"                < S M - c s r <  .k g X ! ! F c                                 ",
"                O S P ; l S T : U _ _ k O d t |                                 ",
"              U g < B f V h ! ;._ : B > c - u                                   ",
"              ( Z ~ { @.+.#.;.g f e                                             ",
"              i -.>.,.                                                          "};
