/* XPM */
static xpm_row_t const num_0[] = {
"40 58 103 2",
"  	c None",
". 	c #A5A5A5",
"+ 	c #AAAAAA",
"@ 	c #B0B0B0",
"# 	c #B5B5B5",
"$ 	c #BCBCBC",
"% 	c #C2C2C2",
"& 	c #C9C9C9",
"* 	c #D1D1D1",
"= 	c #D9D9D9",
"- 	c #9A9A9A",
"; 	c #9E9E9E",
"> 	c #A3A3A3",
", 	c #ABABAB",
"' 	c #B3B3B3",
") 	c #BBBBBB",
"! 	c #C0C0C0",
"~ 	c #C6C6C6",
"{ 	c #CBCBCB",
"] 	c #D0D0D0",
"^ 	c #D5D5D5",
"/ 	c #DADADA",
"( 	c #D8D8D8",
"_ 	c #969696",
": 	c #999999",
"< 	c #A0A0A0",
"[ 	c #BFBFBF",
"} 	c #CFCFCF",
"| 	c #D7D7D7",
"1 	c #D6D6D6",
"2 	c #D2D2D2",
"3 	c #CDCDCD",
"4 	c #CACACA",
"5 	c #C7C7C7",
"6 	c #C5C5C5",
"7 	c #C4C4C4",
"8 	c #C3C3C3",
"9 	c #C1C1C1",
"0 	c #9B9B9B",
"a 	c #A9A9A9",
"b 	c #D4D4D4",
"c 	c #DBDBDB",
"d 	c #DCDCDC",
"e 	c #CCCCCC",
"f 	c #C8C8C8",
"g 	c #BABABA",
"h 	c #B6B6B6",
"i 	c #B2B2B2",
"j 	c #AFAFAF",
"k 	c #ACACAC",
"l 	c #A6A6A6",
"m 	c #9F9F9F",
"n 	c #979797",
"o 	c #BDBDBD",
"p 	c #B9B9B9",
"q 	c #B4B4B4",
"r 	c #A8A8A8",
"s 	c #A4A4A4",
"t 	c #9D9D9D",
"u 	c #909090",
"v 	c #A1A1A1",
"w 	c #DDDDDD",
"x 	c #CECECE",
"y 	c #B8B8B8",
"z 	c #A7A7A7",
"A 	c #A2A2A2",
"B 	c #959595",
"C 	c #8F8F8F",
"D 	c #888888",
"E 	c #818181",
"F 	c #9C9C9C",
"G 	c #ADADAD",
"H 	c #989898",
"I 	c #939393",
"J 	c #8B8B8B",
"K 	c #7A7A7A",
"L 	c #7C7C7C",
"M 	c #D3D3D3",
"N 	c #929292",
"O 	c #8E8E8E",
"P 	c #898989",
"Q 	c #858585",
"R 	c #808080",
"S 	c #7D7D7D",
"T 	c #838383",
"U 	c #B7B7B7",
"V 	c #AEAEAE",
"W 	c #949494",
"X 	c #8C8C8C",
"Y 	c #7F7F7F",
"Z 	c #7B7B7B",
"` 	c #8A8A8A",
" .	c #B1B1B1",
"..	c #BEBEBE",
"+.	c #868686",
"@.	c #828282",
"#.	c #797979",
"$.	c #787878",
"%.	c #919191",
"&.	c #8D8D8D",
"*.	c #878787",
"=.	c #848484",
"-.	c #7E7E7E",
"                              . + @ # $ % & * =                                 ",
"                        - ; > , ' ) ! ~ { ] ^ / ( * {                           ",
"                    _ : < + [ } | ( 1 2 3 4 5 6 7 8 9 ) #                       ",
"                  _ 0 a % b c d / ^ * e f 8 [ g h i @ j k l m                   ",
"                n ; h } ( d d ( b } { ~ % o p q @ k r s < t n u                 ",
"              : v ! b / w c | 2 x 4 6 ! $ y ' j , z A ; : B C D E               ",
"            F A % 1 d w / ^ * e f 8 [ g h i G a . v F H I C J E K L             ",
"          < s ! ( d d ( M } { ~ 9 o p q @ k r > m - _ N O P Q R S T             ",
"          l U ( w c | 2 3 & 6 ! ) U ' V + l A t : W u X D T Y Z Z ` N           ",
"        +  .b d = ^ ] e 5 8 ..g #  .G a s < F n I O J +.@.S #.$.L D - A         ",
"        @ ~ c ( M x 4 ~ 9 $ y q @ k z > ; - _ %.&.P Q R L #.K S @.*.; +         ",
"      q ) 1 1 2 3 & 7 ! ) U i V + l A t : W u X *.T Y Z $.K Y T *.J : i p       ",
"      ) f b ] e 5 8 ..g #  .G a l > m : N X *.Q @.S #.#.L R Q D &.%.n q %       ",
"    ! 7 } } 4 ~ 9 o y q @ , z s > t : I X =.S Z L $.#.S @.+.` C I n F @ { 2     ",
"    5 e 3 f 7 [ ) h ' V + . A v F             Y @.L Y T *.X u W : t v + ] /     ",
"    ] x 5 8 ..p #  .G r s < t :               D &.` =.P &.%._ - m A z k { /     ",
"  ^ | 4 ! $ y ' j , z A ; - _ N                 n - &.C I n F < s r G  .9 *     ",
"  c = 9 g U i V a . v F H W O                   v . n B : t A l + V ' U ..5 8   ",
"  / } g #  .G r s < 0 n N X +.                    V r 0 m > z , @ q p o 9 ! g   ",
"  2 8 ' j , z A ; : B %.X =.-.                    U y v s a G  .h g ..8 5 [  .  ",
"  & y V a . v F H W u J +.L K                     9 7 , + j ' U $ ! 7 & 3 6 r   ",
"~ [ j r > m 0 _ N O ` Q Y Z                       { x U @ # p o % ~ { } b x v   ",
"o h r A t : W %.X D T Y S T                         | 9 h ) [ 8 f 3 * ^ / b F N ",
"# V A F H W C J *.@.-.K Y X                         c ~ $ ! 6 4 x 2 | c d M H D ",
"k . 0 n N O P Q E S #.#.+.W                         b 5 % ~ { } b ( d d ( } I Y ",
"> t B %.X D T Y Z $.K -.C t                         { 6 f 3 * ^ / d c | 2 4 O K ",
"0 B C J *.@.-.K $.Z Y =.H .                         9 % x 2 | c w / ^ * e 6 X Y ",
"I X P Q E L #.#.L E Q ` m V                         p [ M ( d d ( b } { ~ 9 N D ",
"` =.T Y Z $.K -.@.*.J u z U                         @ ../ w / 1 2 3 & 7 ! ) _ u ",
"E S S #.#.Z R =.D &.%._ V [                         r $ d = ^ ] e 5 8 ..g # 0 : ",
"K K $.#.S E +.` O I n F h &                         m h | M x 4 ~ 9 $ y q j < A ",
"-.E Z Y T *.X u W : t A ..*                         B j * 3 f 7 ! ) U i V a . + ",
"*.P E =.P &.%._ - ; A z 6 /                         O a { 5 8 ..p #  .G r s k ' ",
"C %.D ` C I n F < s r G f c                         Q z 6 9 o y ' @ , z A < i ) ",
"H - O u B : t v l + V ' ~ 2                         S > [ ) U ' V + . v t t g 7 ",
"v s _ _ - ; A z , j q y 8 f                         K l p h  .G r s < 0 n F 7 e ",
"  V m F < s r G  .h g ..8 !                         @.r q j , z A ; - B %.; x   ",
"  U G A l + V ' U $ ! 7 ~ U '                     +.X a V a . v F H W u X + (   ",
"  ! $ r k @ q p o % ~ 4 e  .a                     O W r r > m 0 n N O ` *...c   ",
"  4 e @ i h g [ 8 5 e * b i <                     _ F l A ; : B %.&.D =.T x ^   ",
"  M 1 ..U $ ! 7 & x 2 1 c 8 n                     t A v F H I u J *.@.-.&.3 3   ",
"    c f o % ~ 4 } b ( d d } W D                 A . < 0 _ N O ` Q E L #.0 5     ",
"    b 4 7 f e * ^ / w c | * A Y                 r r - B %.X D =.Y Z $.Z G !     ",
"    { 7 5 x 2 | c d / ^ * e ..=.S             , V t W C J +.@.-.K $.Z +.y y     ",
"      ) 9 b ( d d ( b } { ~ % , ` X W F A r k @ v N O P Q E S #.#.L E F q i     ",
"      '  .^ w c 1 2 x & 7 ! $ U + F F v r G , t %.X D T Y Z $.K -.@.P a G       ",
"        > $ = ^ ] e 5 8 ..g h  .G r > v m 0 B C ` +.@.S #.$.Z R =.D n r l       ",
"        0 0 4 } 4 ~ % o p # @ k z > m 0 _ N O P Q E L #.#.S E Q ` u A A         ",
"          J v ~ 7 ! $ U ' V + l A t : B u X D T Y K $.K -.T *.J u - ; F         ",
"          =.R , ..g h  .G r s < F n I C ` +.@.S #.$.Z R =.P &.%._ F n           ",
"            K +.V q @ , z A m - _ %.&.P =.R L #.#.S E +.` C I n : W             ",
"              *.B + a . v t H W u J *.T -.K $.K Y T D X u W H n N C             ",
"                n m s m 0 n I C ` +.E S #.#.L R Q P O N _ : _ u X               ",
"                  l , s H %.&.P =.R L #.#.S @.+.` C I n : W &.`                 ",
"                    # g ' ; J =.-.K $.Z Y T D X u W H n %.X D                   ",
"                      7 { ] 6 z N Q E E +.X %.B H : _ u J                       ",
"                          / d ^ { 9 p ' G a s m - W C                           ",
"                                & 9 p ' k l < 0                                 "};
