/* XPM */
static xpm_row_t const num_1[] = {
"30 58 101 2",
"  	c None",
". 	c #ABABAB",
"+ 	c #A8A8A8",
"@ 	c #AAAAAA",
"# 	c #A5A5A5",
"$ 	c #A0A0A0",
"% 	c #ADADAD",
"& 	c #A2A2A2",
"* 	c #9C9C9C",
"= 	c #979797",
"- 	c #AFAFAF",
"; 	c #A6A6A6",
"> 	c #9E9E9E",
", 	c #989898",
"' 	c #939393",
") 	c #8F8F8F",
"! 	c #AEAEAE",
"~ 	c #A9A9A9",
"{ 	c #A3A3A3",
"] 	c #9B9B9B",
"^ 	c #949494",
"/ 	c #909090",
"( 	c #8B8B8B",
"_ 	c #858585",
": 	c #B0B0B0",
"< 	c #ACACAC",
"[ 	c #A7A7A7",
"} 	c #9F9F9F",
"| 	c #929292",
"1 	c #8E8E8E",
"2 	c #8A8A8A",
"3 	c #848484",
"4 	c #7D7D7D",
"5 	c #B2B2B2",
"6 	c #959595",
"7 	c #919191",
"8 	c #8C8C8C",
"9 	c #898989",
"0 	c #7E7E7E",
"a 	c #7B7B7B",
"b 	c #878787",
"c 	c #838383",
"d 	c #828282",
"e 	c #B4B4B4",
"f 	c #888888",
"g 	c #808080",
"h 	c #7C7C7C",
"i 	c #7A7A7A",
"j 	c #7F7F7F",
"k 	c #797979",
"l 	c #868686",
"m 	c #B6B6B6",
"n 	c #8D8D8D",
"o 	c #818181",
"p 	c #9D9D9D",
"q 	c #B9B9B9",
"r 	c #B5B5B5",
"s 	c #B8B8B8",
"t 	c #A1A1A1",
"u 	c #969696",
"v 	c #BABABA",
"w 	c #A4A4A4",
"x 	c #B7B7B7",
"y 	c #BDBDBD",
"z 	c #B3B3B3",
"A 	c #999999",
"B 	c #C0C0C0",
"C 	c #BCBCBC",
"D 	c #9A9A9A",
"E 	c #CACACA",
"F 	c #BFBFBF",
"G 	c #BBBBBB",
"H 	c #D3D3D3",
"I 	c #C3C3C3",
"J 	c #DADADA",
"K 	c #B1B1B1",
"L 	c #C6C6C6",
"M 	c #D9D9D9",
"N 	c #D1D1D1",
"O 	c #C4C4C4",
"P 	c #C7C7C7",
"Q 	c #BEBEBE",
"R 	c #C2C2C2",
"S 	c #C8C8C8",
"T 	c #CECECE",
"U 	c #C5C5C5",
"V 	c #CDCDCD",
"W 	c #D4D4D4",
"X 	c #C1C1C1",
"Y 	c #D7D7D7",
"Z 	c #D6D6D6",
"` 	c #D5D5D5",
" .	c #CCCCCC",
"..	c #D8D8D8",
"+.	c #DCDCDC",
"@.	c #DBDBDB",
"#.	c #D2D2D2",
"$.	c #D0D0D0",
"%.	c #CFCFCF",
"&.	c #C9C9C9",
"*.	c #CBCBCB",
"                                                      . +   ",
"                                                    @ # $   ",
"                                                % + & * =   ",
"                                            - . ; > , ' )   ",
"                                          ! ~ { ] ^ / ( _   ",
"                                      : < [ } , | 1 2 3 4   ",
"                                  5 - @ { ] 6 7 8 9 3 0 a   ",
"                                5 % [ } = ' 1 ( b c 0 4 d   ",
"                            e : . & ] 6 7 8 f _ g h i j (   ",
"                          e ! [ > , ' ) ( b d j a k a l ^   ",
"                      m 5 . & ] 6 | n 9 _ o 4 i k h o 1 p   ",
"                  q r - [ > , ' ) 8 b c j a k i 0 d b 6 #   ",
"                s 5 . t ] u | 1 9 l o 0 i i h g 3 f n p !   ",
"            v m - ; > , ^ / 8 f 3 g h k i 0 d l ( 1 ' w x   ",
"        y q z . & ] u | 1 2 l d 0 i k a j 3 f 8 / ^ A < B   ",
"      C x - # > A ^ / n f 3 g h k i 0 o _ 2 1 | u D } e E   ",
"  F v z @ t ] = ' ) 2 b d 0 a k a j 3 b ( / ^ , * $ # G H   ",
"  q 5 ; > D 6 7 n 9 _ o h k k 4 o _ 2 n 7 u D > & ; . I J   ",
"  : @ $ = ' ) ( b c j a k a j c b ( ) ' = * } w + < K L M   ",
"    t D | n 9 _ o 4 k k 4 d f 7 / 7 6 A p & # ~ ! 5 x L N   ",
"      | 8 b c j a k a j _ / ] t A = ] } { [ . - e s C O P   ",
"      9 c g 4 i i 4 3 1 = $ + . $ p t # ~ % 5 m v Q R I Q   ",
"        a a i a o 2 6 * t # : z [ { [ . - z s C B O S R e   ",
"        4 o c f | A }       G C % + % K r v Q R L E T R <   ",
"          2 ) 6 D           O U e - z x G B O S V N W X &   ",
"            u               V T G r q y X L E T H Y M X A   ",
"                            Z ` R G F O S  .N ` ..+.J C /   ",
"                            @.Z U X U E T #.Y J +.J ` m b   ",
"                            ` $.P P  .$.W ..+.+...W %.: 0   ",
"                             .S S V #.Z J @.@.Y H T &.~ k   ",
"                            R B *.W Y @.+.M ` N  .S I # 0   ",
"                            s v T M @.@.Y H %.*.L R y w l   ",
"                            : z %.+.M ` N V &.O B C x w /   ",
"                            [ . V Y H %.*.L R Q v m K w A   ",
"                            p { P N V &.U B C s e : . w &   ",
"                            6 ] B *.P I Q v m 5 ! @ ; # .   ",
"                            8 | v U X y s e : < + w $ [ r   ",
"                            c 2 z F v m 5 ! @ ; & > ] ~ y   ",
"                            h 3 % s e : % + w $ * , 6 . P   ",
"                            a l @ 5 ! @ [ & > D u | ) ! $.  ",
"                            d 8 [ % + w t * , 6 / ( 2 K M   ",
"                            ( ' w [ { > ] u | ) 2 _ 3 z +.  ",
"                            ^ D & t p A 6 / 8 9 3 g 0 ! W   ",
"                            p t $ ] = ' ) 2 l c 0 i a + *.  ",
"                            ; + > 6 7 n 9 3 g 4 k k j w X   ",
"                            - : * ) ( b c 0 i i a 0 3 t s   ",
"                            s x * 9 _ o 4 k k h o 3 9 } -   ",
"                            B F ] c j a k i 0 d b 2 ) p ;   ",
"                            E P ] 0 i k h g 3 f n / ^ * p   ",
"                            W %.] k i 4 o l 2 1 | u D D ^   ",
"                            J #.] h g c f 8 / ^ , p $ A (   ",
"                            Y  .D d l 2 1 | u D > { ; D d   ",
"                            T O D b 8 / ^ , * $ # ~ . D a   ",
"                            U C D n | 6 D > t # @ % : * h   ",
"                            C e ] ' = ] > & # [ [ # w 6 3   ",
"                            z % p , D ] A u ) b d c b 9 8   ",
"                            @ ; > , ^ ) 9 c 0 i h o         ",
"                            { > A ^ 1                       "};
