/* XPM */
static xpm_row_t const num_9[] = {
"40 58 103 2",
"  	c None",
". 	c #8D8D8D",
"+ 	c #888888",
"@ 	c #828282",
"# 	c #7C7C7C",
"$ 	c #808080",
"% 	c #878787",
"& 	c #8E8E8E",
"* 	c #969696",
"= 	c #9E9E9E",
"- 	c #939393",
"; 	c #919191",
"> 	c #929292",
", 	c #949494",
"' 	c #979797",
") 	c #989898",
"! 	c #9A9A9A",
"~ 	c #9C9C9C",
"{ 	c #A1A1A1",
"] 	c #A8A8A8",
"^ 	c #B1B1B1",
"/ 	c #B9B9B9",
"( 	c #9B9B9B",
"_ 	c #B5B5B5",
": 	c #B7B7B7",
"< 	c #B6B6B6",
"[ 	c #B2B2B2",
"} 	c #B0B0B0",
"| 	c #ABABAB",
"1 	c #A4A4A4",
"2 	c #A3A3A3",
"3 	c #A5A5A5",
"4 	c #ACACAC",
"5 	c #B8B8B8",
"6 	c #C6C6C6",
"7 	c #CFCFCF",
"8 	c #A0A0A0",
"9 	c #C2C2C2",
"0 	c #C3C3C3",
"a 	c #BFBFBF",
"b 	c #BBBBBB",
"c 	c #AEAEAE",
"d 	c #AAAAAA",
"e 	c #9D9D9D",
"f 	c #999999",
"g 	c #CDCDCD",
"h 	c #DADADA",
"i 	c #DDDDDD",
"j 	c #9F9F9F",
"k 	c #AFAFAF",
"l 	c #C5C5C5",
"m 	c #CBCBCB",
"n 	c #C7C7C7",
"o 	c #BEBEBE",
"p 	c #8F8F8F",
"q 	c #8B8B8B",
"r 	c #8C8C8C",
"s 	c #D0D0D0",
"t 	c #CECECE",
"u 	c #A2A2A2",
"v 	c #CCCCCC",
"w 	c #CACACA",
"x 	c #C1C1C1",
"y 	c #BCBCBC",
"z 	c #B4B4B4",
"A 	c #A7A7A7",
"B 	c #959595",
"C 	c #898989",
"D 	c #848484",
"E 	c #C8C8C8",
"F 	c #C4C4C4",
"G 	c #BABABA",
"H 	c #A9A9A9",
"I 	c #909090",
"J 	c #838383",
"K 	c #7E7E7E",
"L 	c #7B7B7B",
"M 	c #797979",
"N 	c #BDBDBD",
"O 	c #8A8A8A",
"P 	c #868686",
"Q 	c #818181",
"R 	c #7D7D7D",
"S 	c #7A7A7A",
"T 	c #858585",
"U 	c #C9C9C9",
"V 	c #C0C0C0",
"W 	c #B3B3B3",
"X 	c #A6A6A6",
"Y 	c #7F7F7F",
"Z 	c #ADADAD",
"` 	c #D8D8D8",
" .	c #D3D3D3",
"..	c #D7D7D7",
"+.	c #DEDEDE",
"@.	c #D9D9D9",
"#.	c #DCDCDC",
"$.	c #D5D5D5",
"%.	c #D4D4D4",
"&.	c #D1D1D1",
"*.	c #D6D6D6",
"=.	c #DBDBDB",
"-.	c #D2D2D2",
"                              . + @ # # $ % & * =                               ",
"                        * - ; ; > > > , ' ) ! ~ { ] ^ /                         ",
"                    ( ' = ] ^ _ : < _ [ } | ] 1 2 3 4 5 6 7                     ",
"                8 ~ { < 9 6 6 0 a b < [ c d 3 { e ! f = [ g h i                 ",
"              j 8 k l g m n 0 o / _ ^ 4 ] 1 8 ( * - p q r 2 l s t               ",
"            ~ u / v t w l x y 5 z k | A 2 = ! B ; . C D $ # . k a o             ",
"          f 1 a t g E F a G < [ c H 3 { e ) , I q % J K L M L + u } c           ",
"        ' j N v m 6 9 N / z } 4 ] 2 j ( ' > & O P Q R S M # Q T . ~ 2 8         ",
"      , ) < m U l V y : W k | X u e f , I r + J Y L M S K @ P q p * ! * ;       ",
"      p A 6 E 0 a G < ^ Z ] 3 8 ~ ' - p O P @ R S M L $ D C r ; B ! ~ > %       ",
"    + * N 6 x N 5 z k 4 A 2 = ( * I q + D K L M S R Q T O & - ' ( j 1 ~ @ L     ",
"    D | 9 V b : [ c d X { e ) B B { [ G : H > $ K J % q I , f e { 3 d | - K     ",
"  R p : N / _ } 4 ] 1 j ( ' B = b 7 ` `  .w o H I O . > * ! = 2 A 4 } W H . .   ",
"  R ~ 5 : z k d X 2 = f B - 3 6 ..i +.    w x : H * - ) ~ j 1 H Z ^ < G 5 { *   ",
"  T X _ ^ Z H 3 8 ~ ) , ; j 6 @.                H = ! e u X d c W : b V 9 [ u   ",
"P p H } 4 ] 2 j ( * > & ; / `                     f ) u A 4 ^ z 5 N 9 6 U V Z   ",
"& ' H d X u = f B I r C ( t #.                    I p 2 Z [ < G a 0 n v s v 5 / ",
"B e X 1 8 ~ ' - p q P J 3 $.                        Q 8 W 5 y x l U t  ...$.0 9 ",
"~ { 2 = ! * ; . + T $ $ | s                         S ~ 5 o 9 n v s %.@.#.@.m m ",
"3 X = ) , p r % J K L K | n                         K j o F E g &.*.h #.h *.s  .",
"c d ! - & O P Q R S M Y X N                         % H l w 7  ...=.#.@.$.&.%.h ",
": ^ ) . + T $ # S S K D e W                         ; _ m s $.@.=.=.`  .7 v $.@.",
"x / f % J K L M L $ D + * A 3                     B j 9 &...=.#.h $.&.v E n s -.",
"v F e Q # S S R Q P C & B ~ !                     e [ 7 ` =.=.` %.7 m 6 9 x E w ",
"  -.X K M L K @ % r I - ) ! > r                 8 d n ` =.h .. .t U l x y b V 0 ",
"  ` [ Q # $ D + . ; * ! = 8 * T K             2 | 9 ` =.@.$.s v E 0 o G < < / b ",
"  $.b q @ P O & - ' ( 8 1 ] ] ' P J C I ' e 1 ^ l ` =.`  .7 w 6 9 N 5 z } ^ W   ",
"  g a ) C q I B f ~ { X d c W [ | 2 8 u ] [ V 7 @.h *.&.g U F a b : [ c | | |   ",
"    b 3 I > * ! j 2 A | } _ 5 y x 0 F n v -.@.h ` %.s v n 9 o G _ ^ Z H X 3 1   ",
"    W d f ) ~ 8 3 H Z ^ < G a 0 E v s $.@.#.=...-.t w l V y 5 z k | A 2 8 j e   ",
"      2 ~ ~ u X d k z : b V l U g -...h #.h $.&.g E 0 a b < ^ c d 3 8 e ! '     ",
"      ~ B ' 3 4 } _ / o 9 6 m s %.` =.=.` %.s m 6 9 o / z } 4 ] 2 j ( * - I     ",
"        r + ( k < b V F E g &.*.h #.h *.-.t U F V y : W c d X u e f , I r C     ",
"          R @ { 5 x l w 7  ...=.=.@.$.s m n 0 o / _ [ Z ] 1 { ~ ' - & + D       ",
"            $ q X N U s $.@.=.=.`  .7 w 6 x N 5 z k 4 A 2 = ! * > . % $ R       ",
"              I f ] b m *.=.h *.-.g E F x a 5 [ c d X { e ) , I r P Y L         ",
"                  A k / l g &.&.&.7 g m E V z 4 H 1 8 ( ' > & O T Y # R         ",
"                      y 9 w s *.@.`  .g l : 4 X u = ! B ; . C D $ K $           ",
"                              i #.*.v 0 : d 3 8 ~ ) , p q % J K K J +           ",
"                                    9 : d 2 j ( * > & O T Q R # T q             ",
"                                  a < d u = f B I r + D Y L L D &               ",
"                                y _ d { ~ ' - & O P @ K S S J p *               ",
"                              G W d 8 ! B > . + D Q R M S @ I f                 ",
"                            : ^ ] = ) , p q % J K L M L Q I (                   ",
"                          _ k X e ' > & O P Q R S S # Q p e u                   ",
"                        W Z 3 ( * ; . + D $ # M S K J & = X                     ",
"                      } d u ! - p q P @ K L S # $ D & j ]                       ",
"                    Z H 8 ) > . C T $ # S S R Q P & j d                         ",
"                  | 3 = * I r + D Y L M L Y J % & = Z [                         ",
"                H 2 ( , p O P @ K S M # $ D C & = k <                           ",
"              A { f > . C T $ # S M R @ P O I = } 5                             ",
"            3 j ' I q % J K L M L Y J + r ; j [ b                               ",
"          X = * p C T Q R S S R Q T C & - 8 W N                                 ",
"              ; + Q # # # # Y @ P q p , 8 z V                                   ",
"                  R # Q % q r . p > * u < 9                                     ",
"                        I ' e { u u X 5 l w                                     ",
"                              Z z 5 N n g                                       ",
"                                  l m 7                                         "};
