/* XPM */
static xpm_row_t const num_5[] = {
"40 58 105 2",
"  	c None",
". 	c #C2C2C2",
"+ 	c #C9C9C9",
"@ 	c #D0D0D0",
"# 	c #D7D7D7",
"$ 	c #DCDCDC",
"% 	c #D9D9D9",
"& 	c #D3D3D3",
"* 	c #CCCCCC",
"= 	c #C6C6C6",
"- 	c #BFBFBF",
"; 	c #B8B8B8",
"> 	c #B2B2B2",
", 	c #ABABAB",
"' 	c #A5A5A5",
") 	c #9E9E9E",
"! 	c #989898",
"~ 	c #929292",
"{ 	c #8B8B8B",
"] 	c #858585",
"^ 	c #7E7E7E",
"/ 	c #797979",
"( 	c #7C7C7C",
"_ 	c #818181",
": 	c #888888",
"< 	c #8E8E8E",
"[ 	c #959595",
"} 	c #9B9B9B",
"| 	c #A2A2A2",
"1 	c #A8A8A8",
"2 	c #AFAFAF",
"3 	c #B5B5B5",
"4 	c #CBCBCB",
"5 	c #CFCFCF",
"6 	c #CACACA",
"7 	c #C3C3C3",
"8 	c #BDBDBD",
"9 	c #ADADAD",
"0 	c #949494",
"a 	c #8A8A8A",
"b 	c #828282",
"c 	c #868686",
"d 	c #8C8C8C",
"e 	c #B1B1B1",
"f 	c #B7B7B7",
"g 	c #BEBEBE",
"h 	c #D2D2D2",
"i 	c #A4A4A4",
"j 	c #7F7F7F",
"k 	c #7D7D7D",
"l 	c #808080",
"m 	c #838383",
"n 	c #878787",
"o 	c #8F8F8F",
"p 	c #939393",
"q 	c #979797",
"r 	c #9A9A9A",
"s 	c #A6A6A6",
"t 	c #AAAAAA",
"u 	c #AEAEAE",
"v 	c #B6B6B6",
"w 	c #BABABA",
"x 	c #C4C4C4",
"y 	c #C8C8C8",
"z 	c #D1D1D1",
"A 	c #D6D6D6",
"B 	c #DADADA",
"C 	c #C7C7C7",
"D 	c #A1A1A1",
"E 	c #9F9F9F",
"F 	c #ACACAC",
"G 	c #B0B0B0",
"H 	c #B9B9B9",
"I 	c #D4D4D4",
"J 	c #9C9C9C",
"K 	c #7A7A7A",
"L 	c #9D9D9D",
"M 	c #BBBBBB",
"N 	c #CDCDCD",
"O 	c #D5D5D5",
"P 	c #DDDDDD",
"Q 	c #DBDBDB",
"R 	c #CECECE",
"S 	c #848484",
"T 	c #898989",
"U 	c #8D8D8D",
"V 	c #919191",
"W 	c #B3B3B3",
"X 	c #BCBCBC",
"Y 	c #C1C1C1",
"Z 	c #C5C5C5",
"` 	c #D8D8D8",
" .	c #DEDEDE",
"..	c #999999",
"+.	c #909090",
"@.	c #A9A9A9",
"#.	c #A7A7A7",
"$.	c #969696",
"%.	c #C0C0C0",
"&.	c #B4B4B4",
"*.	c #A3A3A3",
"=.	c #DFDFDF",
"-.	c #A0A0A0",
";.	c #7B7B7B",
">.	c #787878",
"            . + @ # $ % & * = - ; > , ' ) ! ~ { ] ^ / ( _ : < [ } | 1 2 3       ",
"            4 * 5 & @ 6 7 8 ; > 9 1 | ) ! 0 < a ] b c d ~ ! ) ' , e f ; g       ",
"            h i b j k l m n { o p q r ) | s t u > v w - x y * z A B B 7 C       ",
"            B D / / k _ c a < p q } E i 1 F G 3 H 8 . C 4 5 I % $ $ I + z       ",
"            # J K ^ m n d o 0 ! L D ' t u > v M - 7 y N z O B P Q # 5 h         ",
"            R } l S T U V [ r ) | s , 2 W f X Y Z + R h # Q P B O z I Q         ",
"            = r c a < p q } E i 1 F e 3 H 8 . C 4 5 I ` $ $ ` I 5 N B  .        ",
"            8 ..{ +.0 ! J D ' @.9 > v M - x y N z A B P Q # & R + N %           ",
"            3 r V [ ..) | #., 2 W ; X Y Z 6 R h # Q P B O z * y x 5 z           ",
"            9 r $.} E i 1 F G 3 H 8 Y C 4 5 & ` $ $ % I @ 4 C . g * 6           ",
"            i } J D ' @.9 > v w - 7 y * z O B P Q # h R + Z %.X X x x           ",
"            J L | s , 2 W f X %.Z + * z O B $ % O z N + Z %.M f H 8             ",
"            0 ) 1 F G &.H 8 . = 4 4 &.v X . C 4 5 I ` # z 4 x g H v             ",
"            U D 9 > v w g 7 C * @ z &.&.M Y + 5 A $ B I R C %.H W u             ",
"            S *.W f X %.x + R h A A X X                                         ",
"            k s H 8 . = 4 5 I ` $ % 7 =                                         ",
"            ( F - 7 C * z O % $ Q A 6 R                                         ",
"            S > x y N h A B P B A z z ` =.Q & * =                               ",
"            U ; 6 5 & ` $ $ % I @ R ` B O R y . X v G t                         ",
"            [ - z O % P Q # & R 6 C C 7 8 f &.2 F t s -.r [                     ",
"            L Z A Q P B A z N + x - M f > u t ' D L ..$.V { ] j                 ",
"            s 4 $ $ % I @ * C 7 g w 3 e 9 1 ' -.J q p o a ] k K j               ",
"            9 @ Q # & 5 6 Z Y 8 ; &.G F #.*.) r $.~ U T ] l ;.k ] U             ",
"            v @ A h N + x %.M f > u t s D L ! [ +.d n m j ;.>.K n 0 J           ",
"            g R @ * C 7 g w 3 e 9 @.i -.J q p o { c b ^ / >.;.j ] p *.F         ",
"            = N 6 = Y 8 ; &.G , #.*.) r $.V U T ] l ( / / k _ ] a o | > X       ",
"            5 4 x %.M f W u t s | L ..[ V d : m j ;.>.K ^ b n { o 0 r &..       ",
"            # 6 g w v e u t s | ) ..0 o { n b ^ K >.;.l S : U V [ ..) , + h     ",
"            Q = H v f v > 9 1 | } [ < : b ^ ( / / ( _ ] T U ~ $.r E *.1 Z B     ",
"            I Z %.- H &.2 @.i ) ! V a b ;.K l l j b n { o p ! J -.' @.u M % `   ",
"            * Z %.w ;                       T < o T U V [ ..) | s , 2 W ; R *   ",
"            = 7                               ..L J p $.r E *.1 F G &.H 8 x 7   ",
"                                                1 F ) J -.i @.9 e 3 w g 7 Z X H ",
"                                                  v G | s t 2 W f M %.x + 6 3 2 ",
"                                                  - Y @.F 2 &.; 8 Y = 6 5 z e ' ",
"                                                  4 4 W e 3 w g 7 C * @ O # 9 } ",
"                                                  O I M f X %.x + R h A B Q 1 p ",
"                                                   .% - 8 Y Z 6 5 & # $ $ ` D a ",
"                                                  =.A Y . C 4 @ I % $ $ ` z ! b ",
"                  S                               A N x + N h A B P B A h 6 < ;.",
"                S T                             h * C 6 R & ` $ P % I @ * Y ] ( ",
"              n a o !                           4 Z 4 @ I % $ $ ` & 5 6 = ; b S ",
"            T d { d L #.G                     y . + z A B $ Q # h R + Z %.t c   ",
"          a < U T U $.@.3 g y             N = Y + h # Q P B O @ * y 7 g w ! o   ",
"        U +.o { o p q L 2 Y 4 & B  .` h 4 x . * I % $ $ ` & 5 6 = Y 8 ; G 0 !   ",
"      o ~ V d +.0 ! L D s u 8 5 ` O 5 6 y 4 @ A B P Q A h R + x %.X f > i ..    ",
"    V 0 p < V [ r ) | s , 2 &.H g . = 6 R h # Q $ B O z * y 7 - w v e , ) D     ",
"  p $.[ o ~ q } E *.1 F e 3 H 8 . = 4 @ I % P $ ` I 5 4 = . 8 H &.G F i *.      ",
"[ ! q V 0 ..L D ' t u > v M - x y N z A B P Q A h N + x %.M f W 2 t s s F       ",
"J -.) $.r ) | s , 2 W ; X Y Z + R h # Q P B A z * y 7 - w v > 9 @.s #.u         ",
"  t 2 t D *.1 F G 3 H 8 . C 4 5 I % $ $ ` I @ 4 = . g H 3 G 9 1 s @.G           ",
"    H g M u u > v M - 7 y * z O B $ Q # h R + Z %.X f W 2 , s ' , e             ",
"      6 R 5 %.; X %.Z + R h # Q P B O z * y 7 - w v > u @.' ' 9 W               ",
"        B P # 6 7 = 4 5 & ` $ $ % I 5 4 C . 8 H 3 e F 1 s 1 2 v                 ",
"            I 4 7 Y y h ` P $ # h R + Z Y X ; W 2 t s s t e ;                   ",
"                8 &.2 G g y 6 + y = . X f e F 1 *.| s F W                       ",
"                    @.-...0 V < a c : { o p q } | 1 G                           ",
"                            n ^ K k m T +.q L                                   "};
