/* XPM */
static xpm_row_t const num_2[] = {
"40 58 103 2",
"  	c None",
". 	c #BFBFBF",
"+ 	c #B9B9B9",
"@ 	c #B2B2B2",
"# 	c #ABABAB",
"$ 	c #A4A4A4",
"% 	c #9E9E9E",
"& 	c #989898",
"* 	c #919191",
"= 	c #8B8B8B",
"- 	c #848484",
"; 	c #CBCBCB",
"> 	c #C4C4C4",
", 	c #BEBEBE",
"' 	c #B5B5B5",
") 	c #AFAFAF",
"! 	c #AAAAAA",
"~ 	c #9D9D9D",
"{ 	c #949494",
"] 	c #8C8C8C",
"^ 	c #838383",
"/ 	c #7D7D7D",
"( 	c #808080",
"_ 	c #878787",
": 	c #8F8F8F",
"< 	c #D0D0D0",
"[ 	c #C9C9C9",
"} 	c #C2C2C2",
"| 	c #C3C3C3",
"1 	c #D6D6D6",
"2 	c #D7D7D7",
"3 	c #D4D4D4",
"4 	c #CACACA",
"5 	c #9A9A9A",
"6 	c #939393",
"7 	c #9C9C9C",
"8 	c #A5A5A5",
"9 	c #CFCFCF",
"0 	c #C8C8C8",
"a 	c #C7C7C7",
"b 	c #CECECE",
"c 	c #D9D9D9",
"d 	c #DCDCDC",
"e 	c #DBDBDB",
"f 	c #D2D2D2",
"g 	c #CDCDCD",
"h 	c #C0C0C0",
"i 	c #BCBCBC",
"j 	c #B7B7B7",
"k 	c #B1B1B1",
"l 	c #A2A2A2",
"m 	c #A9A9A9",
"n 	c #C6C6C6",
"o 	c #CCCCCC",
"p 	c #D1D1D1",
"q 	c #DDDDDD",
"r 	c #DADADA",
"s 	c #D5D5D5",
"t 	c #BABABA",
"u 	c #B6B6B6",
"v 	c #ADADAD",
"w 	c #A0A0A0",
"x 	c #B3B3B3",
"y 	c #D3D3D3",
"z 	c #BDBDBD",
"A 	c #B4B4B4",
"B 	c #B0B0B0",
"C 	c #ACACAC",
"D 	c #A8A8A8",
"E 	c #A3A3A3",
"F 	c #969696",
"G 	c #C5C5C5",
"H 	c #D8D8D8",
"I 	c #C1C1C1",
"J 	c #B8B8B8",
"K 	c #A6A6A6",
"L 	c #999999",
"M 	c #909090",
"N 	c #BBBBBB",
"O 	c #AEAEAE",
"P 	c #A1A1A1",
"Q 	c #8A8A8A",
"R 	c #868686",
"S 	c #818181",
"T 	c #9F9F9F",
"U 	c #9B9B9B",
"V 	c #8E8E8E",
"W 	c #898989",
"X 	c #7C7C7C",
"Y 	c #797979",
"Z 	c #959595",
"` 	c #A7A7A7",
" .	c #888888",
"..	c #7F7F7F",
"+.	c #7B7B7B",
"@.	c #787878",
"#.	c #828282",
"$.	c #858585",
"%.	c #979797",
"&.	c #7A7A7A",
"*.	c #7E7E7E",
"=.	c #8D8D8D",
"-.	c #929292",
"                            . + @ # $ % & * = -                                 ",
"                      ; > , + ' @ ) ! $ ~ { ] ^ / ( _ :                         ",
"                  < [ } . | [ < 1 2 3 < 4 } + ) $ 5 6 { 7 8                     ",
"                9 0 > a b 3 c d e 2 f g 4 > h i j k ! l l m k                   ",
"              g a n o p 1 e q r s p o 0 | . t u k v m $ w $ x h 4               ",
"            ; n [ b y 2 d d c 3 9 ; n } z t A B C D E % 5 F 7 + b c             ",
"          [ G 4 < 3 c d e H y b 4 G I i J A ) # K l % L { M ] { I r e           ",
"        a > ; p 1 e q r 1 p g 0 > . N u @ O m 8 P 7 & 6 : Q R S * G p           ",
"      > I 4 f 2 e d r s < ; a } , + ' k v D $ T U F 6 V W - S X Y Z I |         ",
"    | z n y H d d H 3 9 4 n I z J A B # ` l % L Z M ]  .^ ..+.@.+.#.8 j         ",
"    t i f r q e 1 f g [ > . N j x O ! 8 P ~ & { : = R #./ Y Y X ( $.* m #       ",
"    x 0 r d r s p o 0 | . t ' k v m K E T %.6 V Q $.S X Y Y / S R Q : % P       ",
"  B @ s d H 3 < ; n I z + A B # K D C k A ) 5 Q - ( +.Y &.*.^ _ = M { L & Z     ",
"  D + c 2 f b 4 G h i J x O m $ m ) u i > [ a 8 ( +.Y +...-  .=.* F 5 ~ -.=     ",
"  P } 1 f g 0 > . t u @ v m K ! B           c < L Y X S $.Q V -.%.U T l -.#.    ",
"  U G p o a | , + ' k C D ` C k               1 + - #._ = : 6 & ~ P 8 ! %.&.    ",
"Z %.| 4 G I z J x ) # K 8 v x                 b } &  .] * Z L % l K # B % *.    ",
"] -.. > h N j @ O m 8 P ` u                     z $ V -.F U T E D C k u ` _     ",
"- = t . t ' k v D $ w 7 # ,                     u ` { & 7 w $ m v @ u N O *     ",
"X R A J A ) # ` E % 5 %.) 0                     O E 5 ~ P K ! ) x J i I ' &     ",
"/  .O x O ! K l ~ & { * B <                     $ % % l D C B A + , I a + w     ",
"$.] m v m $ w U %.6 : Q m 2                     U 5 $ m v k ' t , | a g i `     ",
"  -.8 ` E % 5 F * =.W - %.f H                   6 5 m O x j i h > [ b p i )     ",
"  5 l l ~ L { M ] _ ^ ....x g [                 ] w ) A J z I n 4 9 3 s i j     ",
"  l $ 7 & 6 : = R #./ Y Y = u , +              .] # ' t , | a o < s r 3 z h     ",
"  C v 5 -.=.W $.S X Y Y / #.6 # O m           S L ' N . > [ g p 1 e d b }       ",
"  u j P ]  .- ..+.Y &.*.^ _ ] L 8 E         *.R v i I G 4 b y 2 e d H ; ;       ",
"    } x = #.*.&.Y X ( - W =.6 % w         X / P z } n ; < s c d e 2 f b y       ",
"    g 4 U X Y Y / S $.Q V 6 5 7 U         +.6 t | 0 o p 1 r q e 1 f p 1         ",
"      r . ( &.*.#._ = : 6 & 5 %.        X Q ' > [ b f 2 e d c s p 9 2 q         ",
"      d < w S ^  .=.* Z & %.6         ..R C G ; 9 3 H e d H 3 9 o 3 d           ",
"        b i F Q V -.F 5 & *           $.P > o p s r q r 2 f b [ b c r           ",
"          z O %.6 & 7 L : =         _ & I g f 2 r d r 1 p o 0 n y s             ",
"            O E U ~ % :  .        = -.+ b y 2 d d c 3 9 ; n } [ p p             ",
"              T & %.* $.        : -.) b s c d e 2 y b [ G I } o o               ",
"                * W ^ ..        6 ` ; 1 r q r 1 p g [ | . z a [                 ",
"                    /         F P n 2 e d c s < o a | , t h G >                 ",
"                            U % z 2 d d H y 9 4 n I z J t I h                   ",
"                            T u s d e 2 f g [ > h N j u z i                     ",
"                          l O p d c s < o 0 | , t ' x t t                       ",
"                        8 # ; e c 3 9 ; a } z J A k u j u                       ",
"                      m # } H 2 y b [ G h i j x B x ' x                         ",
"                      O t 3 1 p g 0 | , N u @ O B @ B                           ",
"                    k j g 3 < ; a } , + ' B C O B C m                           ",
"                  A j 0 f b 4 G I i J x B # # O m E ~ %.M W #./ +.( R =.{ 5 P D ",
"                  + | 9 g [ > . N j @ O m K D $ % & 6 ] _ S +.Y X ^  .V { U ` ) ",
"                i I g o a } , t ' k C D $ w U F -.V Q $.( X Y Y / #.R Q : L ) j ",
"              . } 4 ; n I z J A B # ` E % 5 Z * =. .- ( +.@.&.*.^ _ ] M { $ J   ",
"            | > [ [ G h i j x O ! 8 P ~ & { M = _ #.*.&.Y X ( -  .=.* F U @ I   ",
"            0 4 a | . N u k v m 8 w 7 %.6 : Q $.S / Y Y / #.$.W : 6 %.U E . ;   ",
"          ; g 0 } z + A B # D E T 5 F * =.W - ( +.Y &.*.#._ = M { L 7 P ) 4 3   ",
"        9 < 4 I i j x ) # K P ~ L Z M ] _ ^ ..&.Y +...-  .=.* Z L % E K N s     ",
"      y y 9 I N u @ v m 8 w 7 & 6 : Q R #.*.Y Y X ( $.W V -.%.U T $ D O [ d     ",
"      1 y } + ' k C D $ T U F -.V W $.S X Y &./ S R Q : 6 & 7 w 8 m O u 3 r     ",
"    c 2 n J A ) # K l % 5 Z * ]  .^ ..&.@.&...^ _ ] M { L % l K # ) x , y 3     ",
"  d r 4 + x ) # K l ~ & { : = _ ^ *.&.&./ S $.Q : 6 & 7 P K ! ) x j t G o       ",
"q e 1 o > , J k # 8 % L -.] R ..+.X ( R ] -.& T 8 # k J , G o f s f g [ n       ",
"e s b a h t x C K T L -.= $.*.&.X #. .: F 7 E m B u z > ; f H e 2 p 4 | .       "};
