/* XPM */
static xpm_row_t const num_3[] = {
"40 58 103 2",
"  	c None",
". 	c #7A7A7A",
"+ 	c #797979",
"@ 	c #7D7D7D",
"# 	c #838383",
"$ 	c #898989",
"% 	c #909090",
"& 	c #969696",
"* 	c #9D9D9D",
"= 	c #A4A4A4",
"- 	c #ABABAB",
"; 	c #8B8B8B",
"> 	c #868686",
", 	c #808080",
"' 	c #7C7C7C",
") 	c #7E7E7E",
"! 	c #8E8E8E",
"~ 	c #959595",
"{ 	c #9C9C9C",
"] 	c #A2A2A2",
"^ 	c #A7A7A7",
"/ 	c #ACACAC",
"( 	c #B0B0B0",
"_ 	c #B4B4B4",
": 	c #B9B9B9",
"< 	c #C0C0C0",
"[ 	c #C7C7C7",
"} 	c #858585",
"| 	c #949494",
"1 	c #A5A5A5",
"2 	c #B8B8B8",
"3 	c #BEBEBE",
"4 	c #C5C5C5",
"5 	c #CBCBCB",
"6 	c #D0D0D0",
"7 	c #D2D2D2",
"8 	c #D6D6D6",
"9 	c #D7D7D7",
"0 	c #CACACA",
"a 	c #CFCFCF",
"b 	c #DCDCDC",
"c 	c #8F8F8F",
"d 	c #8A8A8A",
"e 	c #939393",
"f 	c #A1A1A1",
"g 	c #B6B6B6",
"h 	c #BBBBBB",
"i 	c #C9C9C9",
"j 	c #CDCDCD",
"k 	c #DBDBDB",
"l 	c #DDDDDD",
"m 	c #DADADA",
"n 	c #D1D1D1",
"o 	c #CCCCCC",
"p 	c #D4D4D4",
"q 	c #D8D8D8",
"r 	c #919191",
"s 	c #A3A3A3",
"t 	c #AFAFAF",
"u 	c #BDBDBD",
"v 	c #C1C1C1",
"w 	c #C6C6C6",
"x 	c #D3D3D3",
"y 	c #C2C2C2",
"z 	c #BFBFBF",
"A 	c #C3C3C3",
"B 	c #BABABA",
"C 	c #B2B2B2",
"D 	c #C8C8C8",
"E 	c #D5D5D5",
"F 	c #D9D9D9",
"G 	c #CECECE",
"H 	c #BCBCBC",
"I 	c #B3B3B3",
"J 	c #B7B7B7",
"K 	c #C4C4C4",
"L 	c #AEAEAE",
"M 	c #AAAAAA",
"N 	c #A8A8A8",
"O 	c #8D8D8D",
"P 	c #A6A6A6",
"Q 	c #B5B5B5",
"R 	c #B1B1B1",
"S 	c #9F9F9F",
"T 	c #9A9A9A",
"U 	c #8C8C8C",
"V 	c #9E9E9E",
"W 	c #999999",
"X 	c #848484",
"Y 	c #888888",
"Z 	c #878787",
"` 	c #ADADAD",
" .	c #A9A9A9",
"..	c #A0A0A0",
"+.	c #989898",
"@.	c #818181",
"#.	c #929292",
"$.	c #7F7F7F",
"%.	c #7B7B7B",
"&.	c #979797",
"*.	c #828282",
"=.	c #787878",
"-.	c #9B9B9B",
"                              . + @ # $ % & * = -                               ",
"                      ; > , ' ) > ! ~ { ] ^ / ( _ : < [                         ",
"                  % ; > } | 1 ( 2 3 4 5 6 7 8 9 7 5 0 a 9 b                     ",
"              | c d e f ( g h < 4 i j 7 8 k l m 8 n j o p q n                   ",
"            e ! r s t _ : u v w 5 a x q b l q p 6 5 [ y z A w y B               ",
"          r ! { - C g B z A D o n E F b k q x G 0 w v H 2 _ I g I /             ",
"        c ! ] t I J h < 4 i j 7 9 k b m 8 n j D K z h J C L M ^ N s {           ",
"      O ! P ( Q : u y w 5 a x q b l F p a 5 [ y u : Q R / N = S { T |           ",
"    ; U ^ C g B z K D o n 8 m l k 9 7 G i 4 < H J I t - P ] V W ~ r U X         ",
"  Y Z P _ 2 H v 4 0 G 7 9 b l m E 6 o D A 3 B g C `  .1 ..{ +.| c ; X @         ",
"} @.V Q : 3 y [ 5 6 p F b b q x a 0 w y u : _ ( / N s S T & #.! $ } , . )       ",
") . d ` z K D o n 8 m l k 8 7 G j 5 [ < : I L - P ] * W ~ r U Y X $.%.$.Z       ",
"  %.# ! / [ G x 9 k l m E n n 9 k q 7 0 < _ M 1 ..{ &.| c ; > *.) . =.# %       ",
"      #.T / 5 F l k q x 6 E m k q n 5 A h _ - ..T & #.! $ } , ' =.+ @ } W V     ",
"        ..N I o F 8 7 n 8 k b             ` 1 * ~ % U Y # $.%.=.. ) *.$ f ^     ",
"            g 3 0 6 n q k                   { & c ; > *.) . =.%., X Y ! N t     ",
"              4 j p m b                       O Z } , ' + + @ @.> d ! e t 2     ",
"                  k m                         X $.$.. =.. ) # Z U % | W 2 v     ",
"                                              ' + + + %., X $ O r ~ T f A 0     ",
"                                              . ' + @ @.> d ! e &.-.S L o 7     ",
"                                              @.@.$.# Z U % | +.* f 1 < 8       ",
"                                            X Y *.} $ O #.& T V s ^ t x b       ",
"                                        @.} ; Z > ; c e +.{ ..=  .` 4 k q       ",
"                        ~ r ; X ) + %.@.> $ > Y U % ~ W * f P M t B 8 p         ",
"                        O $ X $.. + ' , # } $ O #.& T V s ^ / ( g G n           ",
"                        X @.$.%.+ . ) *.> ; c e &.{ ..=  .` R g [ a 0           ",
"                        %.. + =.%.$.# Y U % ~ W * f P M L I 2 4 o [             ",
"                        =.@ . @ @.} $ ! #.& -.S s ^ / ( _ : A 0 K u             ",
"                        $.} , *.> ; c | +.{ ..1  .` C g B z A w 3 _ `           ",
"                        Y O > Y U r ~ T V ] P - t I J H < 4 i G G : P V         ",
"                        r ~ O ! #.&.-...s N / R Q : 3 y w 5 a p q q Q &.c       ",
"                        T V e | W * f 1 M L C J B z K D o n 8 m l k x P Z       ",
"                        s N N ` I : 3 y 4 A 3 H v 4 i G x 9 k b m E n K U .     ",
"                        - R J 3 K 5 n F b 9 a [ 4 5 6 p F b b q p a 5 w - $.*.  ",
"                                            i y H w E m l k 9 7 G 0 4 < : c U   ",
"                                                C t x l F E n o D A z B g = ~   ",
"                                                  s J 9 x a 5 w v u : _ (  .V ] ",
"                                                  T { G j D K < h J I L M P P / ",
"                                                  #.r K [ y 3 B Q R ` N = f ` _ ",
"                  o                               Y Y H v u 2 _ t - ^ s V -.C 3 ",
"                a p m                             $.*.: h J C L M P f * W ~ : [ ",
"              6 7 5 q x                           + O : Q R / N = ..-.&.e #.v a ",
"            x p v H D i y                       =.$.N _ t - P ] V T ~ r O % 0 q ",
"          E 8 A h < 4 [ H I /                 . , +.( L  .1 f * +.| % U Z e E b ",
"        9 q K u y w 5 a o J P * & c   @.%.=.%.} -.L / N = ..-.&.e ! d > @.S q   ",
"      m F 4 z K D o n E F m K M ~ $ # @ %.> & N L - P ] V T ~ r U $ X , @ : n   ",
"    k q w < 4 0 G 7 9 k b m 8 G K J t / L ( R L  .1 f { +.| c ; Z # ) . Y i i   ",
"  b q w y w 5 a p F b b q p a 5 w y 3 : Q R / N s S -.&.#.! d } @.@ + . ^ 4     ",
"b 9 [ K D j n E m l k 9 7 j i 4 < H 2 I t M P ] V W ~ r U Y X , %.=.. ! z 3     ",
"  G w D G x 9 b l F E n o [ A z B g C `  .= f { +.e c ; > *.) . =.%.> C h       ",
"  w z H G F b b q x a 0 w v u 2 _ ( / ^ s V -.& #.O $ } @.' + + @ }  .2 Q       ",
"    g ( ( o F 8 7 j D K < h J I L M 1 f * W | % U Z # $.%.+ . ) Y ^ g C         ",
"        f * _ 0 5 [ A 3 B g R `  .= ..{ +.e c ; > *.) . + %., ! / _ t           ",
"          r ; r / H H : _ ( - ^ s S T & #.O $ } @.@ =.+ @ > V C C `             ",
"            # %.+ d ../ L M 1 f * W | % U Z # $.%.=.@ Y S ( g (                 ",
"                ) } O | * s = f * &.#.U Y Y $ U r * ( H B _ (                   ",
"                      -.] N t _ : 3 A [ j 7 6 o i 4 z : _                       ",
"                              H K 5 7 q b q 7 5 w                               "};
