/* XPM */
static xpm_row_t const traco[] = {
"18 21 2 1",
" 	c None",
".	c #545454",
"                  ",
"                  ",
"                  ",
"                  ",
"                  ",
"                  ",
"                  ",
"                  ",
"     .......      ",
"     .......      ",
"     .......      ",
"     .......      ",
"                  ",
"                  ",
"                  ",
"                  ",
"                  ",
"                  ",
"                  ",
"                  ",
"                  "};
