/* XPM */
static xpm_row_t const vida[] = {
"50 46 518 2",
"  	c None",
". 	c #B70000",
"+ 	c #B40000",
"@ 	c #B30000",
"# 	c #B60000",
"$ 	c #B80000",
"% 	c #B50000",
"& 	c #B20000",
"* 	c #B73535",
"= 	c #C77C7C",
"- 	c #D39C9C",
"; 	c #D9AAAA",
"> 	c #DAADAD",
", 	c #D6A4A4",
"' 	c #CD8A8A",
") 	c #BE5453",
"! 	c #BA0A00",
"~ 	c #BF1301",
"{ 	c #BE1301",
"] 	c #BA0C00",
"^ 	c #BC4A49",
"/ 	c #CB8686",
"( 	c #D5A1A1",
"_ 	c #DAACAC",
": 	c #DAABAB",
"< 	c #D49E9E",
"[ 	c #C98282",
"} 	c #B94242",
"| 	c #B80101",
"1 	c #B40C0C",
"2 	c #B93838",
"3 	c #D28F8F",
"4 	c #E8BEBE",
"5 	c #ECC4C4",
"6 	c #EDC8C8",
"7 	c #EEC9C9",
"8 	c #EFC9C9",
"9 	c #EEC8C8",
"0 	c #EDC6C6",
"a 	c #EBC2C2",
"b 	c #DDA4A4",
"c 	c #C55B59",
"d 	c #BE2316",
"e 	c #C01C01",
"f 	c #BF1B01",
"g 	c #BD1F11",
"h 	c #C1504E",
"i 	c #D99D9D",
"j 	c #EAC1C1",
"k 	c #ECC5C5",
"l 	c #E9BFBF",
"m 	c #D69797",
"n 	c #BA4141",
"o 	c #B51010",
"p 	c #B90101",
"q 	c #B60101",
"r 	c #B41515",
"s 	c #C45A5A",
"t 	c #DC9393",
"u 	c #E29E9E",
"v 	c #E29D9D",
"w 	c #E09A9A",
"x 	c #D07270",
"y 	c #C3382D",
"z 	c #C32300",
"A 	c #C22300",
"B 	c #C03024",
"C 	c #CC6A69",
"D 	c #DF9898",
"E 	c #DE9797",
"F 	c #C76262",
"G 	c #B51C1C",
"H 	c #B70101",
"I 	c #B30505",
"J 	c #C55252",
"K 	c #D47272",
"L 	c #D67575",
"M 	c #D67675",
"N 	c #D77775",
"O 	c #D77876",
"P 	c #D06762",
"Q 	c #C63A28",
"R 	c #C72D01",
"S 	c #C62D01",
"T 	c #C3331F",
"U 	c #CE625E",
"V 	c #D57373",
"W 	c #C95959",
"X 	c #B40E0E",
"Y 	c #B30202",
"Z 	c #BF3838",
"` 	c #CC5454",
" .	c #CC5555",
"..	c #CC5554",
"+.	c #CD5555",
"@.	c #CD5754",
"#.	c #CE5954",
"$.	c #CE5A54",
"%.	c #CF5B54",
"&.	c #CF5C54",
"*.	c #CB5046",
"=.	c #C83710",
"-.	c #CB3701",
";.	c #C7340B",
">.	c #C94B41",
",.	c #CD5654",
"'.	c #C24040",
").	c #B40101",
"!.	c #B71818",
"~.	c #C33737",
"{.	c #C43939",
"].	c #C33838",
"^.	c #C13535",
"/.	c #BF3232",
"(.	c #BE2F2F",
"_.	c #BD2C2C",
":.	c #BC2C2C",
"<.	c #BC2B2B",
"[.	c #BE2E2C",
"}.	c #C0322E",
"|.	c #C33831",
"1.	c #C63D34",
"2.	c #C84237",
"3.	c #C94639",
"4.	c #C94739",
"5.	c #CA493A",
"6.	c #C83E26",
"7.	c #CC3C00",
"8.	c #CF3F01",
"9.	c #CB3B00",
"0.	c #C63920",
"a.	c #CA4839",
"b.	c #C84338",
"c.	c #C63E34",
"d.	c #C1332E",
"e.	c #BF2E2D",
"f.	c #BD2B2B",
"g.	c #BE2E2E",
"h.	c #BF3131",
"i.	c #B91E1E",
"j.	c #B40202",
"k.	c #B50101",
"l.	c #B30303",
"m.	c #BA1C1C",
"n.	c #BD2525",
"o.	c #BC2323",
"p.	c #B81818",
"q.	c #B50D0D",
"r.	c #B40909",
"s.	c #B40606",
"t.	c #B40401",
"u.	c #B60901",
"v.	c #B80F01",
"w.	c #BB1502",
"x.	c #BD1B05",
"y.	c #BF2108",
"z.	c #C1260B",
"A.	c #C32D14",
"B.	c #C63620",
"C.	c #C73B25",
"D.	c #C73C23",
"E.	c #CB3D0A",
"F.	c #CF4501",
"G.	c #CA3B06",
"H.	c #C73A23",
"I.	c #C63720",
"J.	c #C32E16",
"K.	c #C1260C",
"L.	c #BB1503",
"M.	c #B40301",
"N.	c #B30201",
"O.	c #B50C0C",
"P.	c #B71717",
"Q.	c #BB2222",
"R.	c #BB1F1F",
"S.	c #B40404",
"T.	c #B81414",
"U.	c #B60C0C",
"V.	c #B30101",
"W.	c #B70B01",
"X.	c #B91101",
"Y.	c #BB1601",
"Z.	c #BE1C01",
"`.	c #C02101",
" +	c #C22601",
".+	c #C42A01",
"++	c #C52E01",
"@+	c #C73101",
"#+	c #C73508",
"$+	c #C73713",
"%+	c #C93B0D",
"&+	c #D14A01",
"*+	c #C93A0B",
"=+	c #C7350A",
"-+	c #B50B0B",
";+	c #B91201",
">+	c #BC1801",
",+	c #BF1E01",
"'+	c #C12301",
")+	c #C32901",
"!+	c #C73301",
"~+	c #C93601",
"{+	c #CA3A01",
"]+	c #CB3C01",
"^+	c #CC3E02",
"/+	c #CB3D05",
"(+	c #D24C01",
"_+	c #D14B01",
":+	c #CC3E03",
"<+	c #B40505",
"[+	c #B70A01",
"}+	c #BF1F01",
"|+	c #C42B01",
"1+	c #C63101",
"2+	c #C83601",
"3+	c #CB3B01",
"4+	c #CC3E01",
"5+	c #CD4201",
"6+	c #CE4401",
"7+	c #CF4701",
"8+	c #CB3A01",
"9+	c #B60801",
"0+	c #B91001",
"a+	c #C52D01",
"b+	c #C73201",
"c+	c #CA3801",
"d+	c #CC3D01",
"e+	c #CF4601",
"f+	c #D24D01",
"g+	c #D34F01",
"h+	c #D35001",
"i+	c #D35101",
"j+	c #B50501",
"k+	c #B80E01",
"l+	c #BF1D01",
"m+	c #C22501",
"n+	c #C52C01",
"o+	c #CA3901",
"p+	c #CC3F01",
"q+	c #D34E01",
"r+	c #D45200",
"s+	c #D55500",
"t+	c #D65700",
"u+	c #D75900",
"v+	c #D75A00",
"w+	c #D24E01",
"x+	c #D04A01",
"y+	c #B30301",
"z+	c #BA1301",
"A+	c #BE1A01",
"B+	c #D35100",
"C+	c #D55600",
"D+	c #D85D00",
"E+	c #DA6000",
"F+	c #DA6200",
"G+	c #DB6300",
"H+	c #B50601",
"I+	c #BC1701",
"J+	c #C32801",
"K+	c #C63001",
"L+	c #C93801",
"M+	c #D65800",
"N+	c #DC6500",
"O+	c #DD6800",
"P+	c #DE6B00",
"Q+	c #DE6C00",
"R+	c #B40201",
"S+	c #BE1B01",
"T+	c #C12401",
"U+	c #C83501",
"V+	c #D95F00",
"W+	c #DB6400",
"X+	c #DD6900",
"Y+	c #DF6D00",
"Z+	c #E07000",
"`+	c #E17300",
" @	c #E17400",
".@	c #B40501",
"+@	c #B80D01",
"@@	c #BC1601",
"#@	c #CD4101",
"$@	c #D04801",
"%@	c #D95E00",
"&@	c #E27400",
"*@	c #E37700",
"=@	c #E47A00",
"-@	c #E57B00",
";@	c #B60701",
">@	c #BD1A01",
",@	c #C02301",
"'@	c #C42C01",
")@	c #C83401",
"!@	c #CB3D01",
"~@	c #D14D01",
"{@	c #D85C00",
"]@	c #DE6A00",
"^@	c #E07100",
"/@	c #E37600",
"(@	c #E67E00",
"_@	c #E78100",
":@	c #E88200",
"<@	c #B50201",
"[@	c #C62F01",
"}@	c #C93701",
"|@	c #CC4001",
"1@	c #E27600",
"2@	c #E57C00",
"3@	c #E88500",
"4@	c #EA8800",
"5@	c #EA8900",
"6@	c #E78000",
"7@	c #DA6100",
"8@	c #B50908",
"9@	c #B60401",
"0@	c #BB1501",
"a@	c #CE4201",
"b@	c #D45300",
"c@	c #DF6C00",
"d@	c #E98600",
"e@	c #EB8B00",
"f@	c #ED8F00",
"g@	c #EE9100",
"h@	c #B81410",
"i@	c #B70501",
"j@	c #BF2001",
"k@	c #C32A01",
"l@	c #DC6700",
"m@	c #E06F00",
"n@	c #E67D00",
"o@	c #E88400",
"p@	c #EB8A00",
"q@	c #EE9000",
"r@	c #EF9500",
"s@	c #F19700",
"t@	c #B51111",
"u@	c #BE3333",
"v@	c #B8130C",
"w@	c #B80C01",
"x@	c #B70C01",
"y@	c #D24F01",
"z@	c #D96000",
"A@	c #E47800",
"B@	c #E77F00",
"C@	c #EA8700",
"D@	c #ED8E00",
"E@	c #F19A00",
"F@	c #F39C00",
"G@	c #B50502",
"H@	c #C03E3E",
"I@	c #C03B38",
"J@	c #B80D02",
"K@	c #BC0E01",
"L@	c #B40601",
"M@	c #B50401",
"N@	c #C02201",
"O@	c #E17200",
"P@	c #ED9000",
"Q@	c #F09700",
"R@	c #F29C00",
"S@	c #F4A100",
"T@	c #B80D00",
"U@	c #BF3534",
"V@	c #CD6463",
"W@	c #BB1D12",
"X@	c #BD1501",
"Y@	c #BA1401",
"Z@	c #DD6A00",
"`@	c #F4A000",
" #	c #BC1802",
".#	c #BD2D27",
"+#	c #D27270",
"@#	c #C24541",
"##	c #BD1200",
"$#	c #B91301",
"%#	c #E37800",
"&#	c #E98700",
"*#	c #EF9400",
"=#	c #F19900",
"-#	c #F29B00",
";#	c #ED8D00",
">#	c #BE2213",
",#	c #D06D68",
"'#	c #CD6A66",
")#	c #BE1C00",
"!#	c #EB8900",
"~#	c #F09600",
"{#	c #BF2103",
"]#	c #CD5D54",
"^#	c #D88680",
"/#	c #C33E33",
"(#	c #C11D01",
"_#	c #C22201",
":#	c #BF2201",
"<#	c #C32701",
"[#	c #E47900",
"}#	c #E98500",
"|#	c #C32803",
"1#	c #CA5144",
"2#	c #DE9289",
"3#	c #CC625A",
"4#	c #C22000",
"5#	c #C42801",
"6#	c #C02401",
"7#	c #D75800",
"8#	c #DC6800",
"9#	c #DF6F00",
"0#	c #E27500",
"a#	c #E47B00",
"b#	c #E88300",
"c#	c #C74230",
"d#	c #DD9085",
"e#	c #D37870",
"f#	c #C42802",
"g#	c #C62901",
"h#	c #C12501",
"i#	c #D14C01",
"j#	c #D45400",
"k#	c #D85B00",
"l#	c #DB6200",
"m#	c #C83400",
"n#	c #C6391E",
"o#	c #D98173",
"p#	c #DB8D83",
"q#	c #C73A22",
"r#	c #C82D01",
"s#	c #C22701",
"t#	c #D65600",
"u#	c #E27300",
"v#	c #E37900",
"w#	c #C83712",
"x#	c #D67565",
"y#	c #E09A8F",
"z#	c #CB5140",
"A#	c #C82C00",
"B#	c #C93101",
"C#	c #C73401",
"D#	c #D95D00",
"E#	c #E17100",
"F#	c #C9370B",
"G#	c #D26653",
"H#	c #E29E91",
"I#	c #CE5B4A",
"J#	c #C93000",
"K#	c #CA3401",
"L#	c #CF4401",
"M#	c #C93700",
"N#	c #CE5740",
"O#	c #E09384",
"P#	c #D26A59",
"Q#	c #C93402",
"R#	c #CC3701",
"S#	c #D55400",
"T#	c #C93800",
"U#	c #CC4C30",
"V#	c #DE8C7C",
"W#	c #D57362",
"X#	c #CB3A10",
"Y#	c #CB3901",
"Z#	c #C52F01",
"`#	c #CE4301",
" $	c #CA4223",
".$	c #D97D6C",
"+$	c #D57260",
"@$	c #CB3904",
"#$	c #CD3A01",
"$$	c #C83813",
"%$	c #D46B57",
"&$	c #D46B56",
"*$	c #CB3B0A",
"=$	c #CC3A01",
"-$	c #CD4001",
";$	c #CE4501",
">$	c #C73209",
",$	c #D05C47",
"'$	c #D15E47",
")$	c #CC3D0F",
"!$	c #CB3E01",
"~$	c #C52E05",
"{$	c #CA442D",
"]$	c #CE4E32",
"^$	c #CC3801",
"/$	c #C42D01",
"($	c #C93501",
"_$	c #C53317",
":$	c #CA3F1B",
"<$	c #CB3803",
"[$	c #CB3601",
"}$	c #C32B01",
"|$	c #C22806",
"1$	c #C83606",
"2$	c #CA3502",
"3$	c #CA3301",
"4$	c #C83301",
"5$	c #BE1E01",
"6$	c #C12201",
"7$	c #BE1D01",
"8$	c #C12601",
"9$	c #CA3201",
"0$	c #CA2F01",
"a$	c #C22801",
"b$	c #BC1901",
"c$	c #BB1701",
"d$	c #C62E01",
"e$	c #C92E01",
"f$	c #C92A01",
"g$	c #C52A01",
"h$	c #B90F01",
"i$	c #BF2101",
"j$	c #C72A01",
"k$	c #C32501",
"l$	c #B81101",
"m$	c #BE1F01",
"n$	c #C01E01",
"o$	c #B60C01",
"p$	c #B60B01",
"q$	c #BF1801",
"r$	c #BD1001",
"s$	c #BE1101",
"                    . + + + @ # $                                 $ % @ & + % .                     ",
"              % + * = - ; > , ' ) . ! ~                     { ] . ^ / ( _ : < [ } + #               ",
"          | 1 2 3 4 5 6 7 8 9 0 a b c d e                 f g h i j k 9 7 7 9 k l m n o p           ",
"        q r s t u v v v v v v v v u w x y z             A B C D u v v v v v v v v u E F G H         ",
"      q I J K L L L L L L L L L L M N O P Q R         S T U N N M L L L L L L L L L L V W X H       ",
"    H Y Z ` ` ` ` `  .` ` ` ..+.@.#.$.%.&.*.=.-.    -.;.>.&.%.$.#.,.+. .` ` `  .` ` ` ` ` '.I H     ",
"    ).!.~.{.{.].^./.(._.:.<.[.}.|.1.2.3.4.5.6.7.  8.9.0.a.4.3.b.c.|.d.e.f.:._.g.h.^.].{.{.].i.j.    ",
"  k.l.m.n.o.p.q.r.s.l.Y t.u.v.w.x.y.z.A.B.C.D.E.F.F.G.H.C.I.J.K.y.x.L.v.u.M.N.l.s.r.O.P.Q.n.R.S.k.  ",
"  ).S.T.U.V.V.V.V.V.V.t.W.X.Y.Z.`. +.+++@+#+$+%+&+&+*+$+=+@+++.+ +`.Z.Y.X.W.t.V.V.V.V.V.V.-+T.s.).  ",
"  ).S.S.V.V.V.V.V.V.t.W.;+>+,+'+)+++!+~+{+]+^+/+(+_+/+:+]+{+~+!+++)+'+,+>+;+W.t.V.V.V.V.V.V.l.<+V.  ",
"H V.Y V.V.V.V.V.V.M.[+X.>+}+ +|+1+2+3+4+5+6+7+7+_+&+7+7+6+5+4+8+2+1+|+ +}+>+X.[+M.V.V.V.V.V.V.Y V.q ",
"k.V.V.V.V.V.V.V.N.9+0+>+}+ +a+b+c+d+5+e+&+f+g+h+i+i+h+g+f+&+e+5+d+c+b+a+ +}+>+0+9+N.V.V.V.V.V.V.V.k.",
").V.V.V.V.V.V.V.j+k+Y.l+m+n+!+o+p+F.&+q+r+s+t+u+v+v+u+t+s+r+w+x+F.p+o+!+n+m+l+Y.k+j+V.V.V.V.V.V.V.).",
"V.V.V.V.V.V.V.y+[+z+A+'+|+b+o+p+e+_+B+C+v+D+E+F+G+G+F+E+D+v+C+B+_+e+p+o+b+.+'+A+z+[+y+V.V.V.V.V.V.V.",
").V.V.V.V.V.V.H+v.I+}+J+K+L+p+e+(+r+M+D+F+N+O+P+Q+Q+P+O+N+F+D+M+r+(+e+p+L+K+J+}+I+v.H+V.V.V.V.V.V.).",
").V.V.V.V.V.R+[+z+S+T+a+U+]+6+_+r+M+V+W+X+Y+Z+`+ @ @`+Z+Y+X+W+V+M+r+_+6+]+U+a+T+S+z+[+R+V.V.V.V.V.q ",
"q V.V.V.V.V..@+@@@}+J+1+o+#@$@h+t+%@N+P+Z+&@*@=@-@-@=@*@&@Z+P+N+%@t+h+$@#@o+1+J+}+@@+@.@V.V.V.V.V.H ",
"  V.V.V.V.V.;@X.>@,@'@)@!@F.~@s+{@G+]@^@/@=@(@_@:@:@_@(@=@/@^@]@G+{@s+~@F.!@)@'@,@>@X.;@V.V.V.V.N.  ",
"  <@N.V.V.N.u.z+Z.m+[@}@|@$@h+u+E+X+Z+1@2@_@3@4@5@5@4@3@6@-@1@Z+X+7@u+h+$@|@}@[@m+Z.z+u.N.V.V.8@<@  ",
"  9@H+V.V.M.W.0@,+J+@+{+a@_+b@{@W+c@ @=@6@d@e@f@g@g@f@e@d@6@=@ @c@W+{@b@_+a@{+@+J+,+0@W.M.@ !.h@9@  ",
"  i@[+t.V.t.+@@@j@k@!+]+6+f+C+%@l@m@/@n@o@p@q@r@s@s@r@q@p@o@n@/@m@l@%@C+f+6+]+!+k@j@@@+@t.t@u@v@    ",
"    w@x@N.t.k+>+`.|+)@!@e+y@t+z@X+^@A@B@C@D@r@E@F@F@E@r@D@C@B@A@^@X+z@t+y@e+!@)@|+`.>+k+G@H@I@J@    ",
"    K@z+L@M@k+>+N@|+)@4+e+g+M+7@]@O@=@_@5@P@Q@R@S@S@R@Q@P@5@_@=@O@]@7@M+g+e+4+)@|+N@>+T@U@V@W@      ",
"      X@Y@j+k+>+N@|+)@4+e+g+M+7@Z@O@=@_@4@P@Q@R@`@`@R@Q@f@4@_@=@O@Z@7@M+g+e+4+)@|+N@ #.#+#@###      ",
"        Z.$#+@I+`.|+)@!@F.w+t+z@X+^@%#B@&#D@*#=#-#-#=#*#;#d@B@%#^@X+z@t+w+F.!@)@.+`.>#,#'#)#        ",
"        e j@Y@@@j@k@!+]+6+(+C+%@l@m@/@n@o@!#f@*#~#~#*#f@!#o@n@/@m@l@%@C+(+6+]+!+)+{#]#^#/#(#        ",
"          _#:#Y.,+<#1+o+a@_+b@{@W+c@`+[#6@}#p@;#f@f@;#p@}#B@[#`+c@W+{@b@_+a@o+1+|#1#2#3#4#          ",
"            5#6#Z.m+++}@|@$@h+7#z@8#9#0#a#B@b#d@4@4@d@b#B@=@0#9#8#z@7#h+$@|@}@++c#d#e#f#            ",
"            g#a+h#,@|+)@]+6+i#j#k#l#X+Z+0#[#n@6@_@_@6@n@[#0#Z+X+l#k#j#i#6+]+m#n#o#p#q#g#            ",
"              r#K+s#J+K+L+|@$@g+t#D+W+]@9#u#/@v#[#[#v#/@u#9#]@W+D+t#g+$@|@L+w#x#y#z#A#              ",
"                B#C#)+'@)@3+a@&+B+t+D#G+O+c@9#E#O@O@E#9#c@O+G+D#t+B+&+a@3+F#G#H#I#J#                ",
"                  K#2+'@[@}@4+L#_+B+t+{@E+W+l@X+Z@Z@X+l@W+E+{@t+B+_+L#4+M#N#O#P#Q#                  ",
"                    R#}@a+1+L+4+F.&+g+S#7#{@V+E+7@7@E+V+{@7#S#g+&+F.4+T#U#V#W#X#                    ",
"                      Y#{+Z#b+L+4+`#$@f+h+j#t#M+M+M+M+t#j#h+f+$@`#4+L+ $.$+$@$                      ",
"                        #$o+[@1+}@]+#@F.$@_+w+g+h+h+g+w+_+$@F.#@]+M#$$%$&$*$                        ",
"                          =${+Z#K+U+o+!@-$`#;$e+7+7+e+;$`#-$!@o+U+>$,$'$)$                          ",
"                            =$o+++n+@+U+L+{+]+!$4+4+!$]+{+L+U+@+~${$]$Y#                            ",
"                              ^$}@/$J+n+[@b+)@U+($($U+)@b+[@n+J+_$:$<$                              ",
"                                [$~+}$T+ +)+|+'@a+a+'@|+)+ +'+|$1$2$                                ",
"                                  3$4$)+5$}+`.6$'+'+6$`.}+7$8$1+9$                                  ",
"                                    0$[@a$>+>+b$b$b$b$>+c$h#d$e$                                    ",
"                                      f$g$6#Y@h$0+0+h$;+i$.+j$                                      ",
"                                          k$j@l$H+H+v.m$k$                                          ",
"                                            n$Z.o$p$S+n$                                            ",
"                                              q$@@@@q$                                              ",
"                                                r$s$                                                "};
