/* XPM */
static xpm_row_t const volta_botao_pequeno[] = {
"178 52 17 1",
" 	c None",
".	c #DD9D61",
"+	c #DCA067",
"@	c #DBA36C",
"#	c #DBA570",
"$	c #DBA672",
"%	c #DAA773",
"&	c #DAA774",
"*	c #DC9A5C",
"=	c #DC9F65",
"-	c #DBA56F",
";	c #DC9C5F",
">	c #DBA36B",
",	c #DC9B5D",
"'	c #DCA26B",
")	c #DC9B5C",
"!	c #DC9D60",
"                    .+@#$%&&&&&&&&&&&&&&&&&&&&&&&&&&&&&&&&&&&&&&&&&&&&&&&&&&&&&&&&&&&&&&&&&&&&&&&&&&&&&&&&&&&&&&&&&&&&&&&&&&&&&&&&&&&&&&&&&&&&&&&&&&&&&&%$#@+.                    ",
"                *=-&&&&&&&&&&&&&&&&&&&&&&&&&&&&&&&&&&&&&&&&&&&&&&&&&&&&&&&&&&&&&&&&&&&&&&&&&&&&&&&&&&&&&&&&&&&&&&&&&&&&&&&&&&&&&&&&&&&&&&&&&&&&&&&&&&&&&&&&&&&&-=*                ",
"              ;>&&&&&&                                                                                                                                      &&&&&&>;              ",
"            ,'&&&&&                                                                                                                                            &&&&&',            ",
"           =&&&&                                                                                                                                                  &&&&=           ",
"         )>&&&                                                                                                                                                      &&&>)         ",
"        ;-&&&                                                                                                                                                        &&&-;        ",
"       !#&&&                                                                                                                                                          &&&#!       ",
"      ;#&&&                                                                                                                                                            &&&#;      ",
"     )-&&&                                                                                                                                                              &&&-)     ",
"     >&&&                                                                                                                                                                &&&>     ",
"    =&&&                                                                                                                                                                  &&&=    ",
"   ,&&&                                                                                                                                                                    &&&,   ",
"   '&&                                                                                                                                                                      &&'   ",
"  ;&&&                                                                                                                                                                      &&&;  ",
"  >&&                                                                                                                                                                        &&>  ",
" *&&&                                                                                                                                                                        &&&* ",
" =&&&                                                                                                                                                                        &&&= ",
" -&&                                                                                                                                                                          &&- ",
" &&&                                                                                                                                                                          &&& ",
".&&&                                                                                                                                                                          &&&.",
"+&&                                                                                                                                                                            &&+",
"@&&                                                                                                                                                                            &&@",
"#&&                                                                                                                                                                            &&#",
"$&&                                                                                                                                                                            &&$",
"%&&                                                                                                                                                                            &&%",
"%&&                                                                                                                                                                            &&%",
"$&&                                                                                                                                                                            &&$",
"#&&                                                                                                                                                                            &&#",
"@&&                                                                                                                                                                            &&@",
"+&&                                                                                                                                                                            &&+",
".&&&                                                                                                                                                                          &&&.",
" &&&                                                                                                                                                                          &&& ",
" -&&                                                                                                                                                                          &&- ",
" =&&&                                                                                                                                                                        &&&= ",
" *&&&                                                                                                                                                                        &&&* ",
"  >&&                                                                                                                                                                        &&>  ",
"  ;&&&                                                                                                                                                                      &&&;  ",
"   '&&                                                                                                                                                                      &&'   ",
"   ,&&&                                                                                                                                                                    &&&,   ",
"    =&&&                                                                                                                                                                  &&&=    ",
"     >&&&                                                                                                                                                                &&&>     ",
"     )-&&                                                                                                                                                                &&-)     ",
"      ;#&&                                                                                                                                                              &&#;      ",
"       !#&&&                                                                                                                                                          &&&#!       ",
"        ;-&&&                                                                                                                                                        &&&-;        ",
"         )>&&&                                                                                                                                                      &&&>)         ",
"           =&&&&                                                                                                                                                  &&&&=           ",
"            ,'&&&&                                                                                                                                              &&&&',            ",
"              ;>&&&&&&                                                                                                                                      &&&&&&>;              ",
"                *=-&&&&&&&&&&&&&&&&&&&&&&&&&&&&&&&&&&&&&&&&&&&&&&&&&&&&&&&&&&&&&&&&&&&&&&&&&&&&&&&&&&&&&&&&&&&&&&&&&&&&&&&&&&&&&&&&&&&&&&&&&&&&&&&&&&&&&&&&&&&&-=*                ",
"                    .+@#$%&&&&&&&&&&&&&&&&&&&&&&&&&&&&&&&&&&&&&&&&&&&&&&&&&&&&&&&&&&&&&&&&&&&&&&&&&&&&&&&&&&&&&&&&&&&&&&&&&&&&&&&&&&&&&&&&&&&&&&&&&&&&&&%$#@+.                    "};
